<svg version="1.2" width="139.7mm" height="139.7mm" viewBox="0 0 13970 13970" preserveAspectRatio="xMidYMid" fill-rule="evenodd" stroke-width="28.222" stroke-linejoin="round" xmlns="http://www.w3.org/2000/svg" xmlns:ooo="http://xml.openoffice.org/svg/export" xmlns:xlink="http://www.w3.org/1999/xlink" xmlns:presentation="http://sun.com/xmlns/staroffice/presentation" xmlns:smil="http://www.w3.org/2001/SMIL20/" xmlns:anim="urn:oasis:names:tc:opendocument:xmlns:animation:1.0"><defs class="ClipPathGroup"><clipPath id="presentation_clip_path" clipPathUnits="userSpaceOnUse"><path d="M0 0h13970v13970H0z"/></clipPath><clipPath id="presentation_clip_path_shrink" clipPathUnits="userSpaceOnUse"><path d="M13 13h13943v13943H13z"/></clipPath></defs><defs class="TextShapeIndex"></defs><defs class="EmbeddedBulletChars"><g id="bullet-char-template-57356" transform="scale(0.00048828125,-0.00048828125)"><path d="M580 1141l583-570L580 0-4 571l584 570z"/></g><g id="bullet-char-template-57354" transform="scale(0.00048828125,-0.00048828125)"><path d="M8 1128H1137V0H8V1128z"/></g><g id="bullet-char-template-10146" transform="scale(0.00048828125,-0.00048828125)"><path d="M174 0 602 739 174 1481 1456 739 174 0zM1358 739 309 1346 659 739h699z"/></g><g id="bullet-char-template-10132" transform="scale(0.00048828125,-0.00048828125)"><path d="M2015 739 1276 0H717l543 543H174V936H1260L717 1481h557l741-742z"/></g><g id="bullet-char-template-10007" transform="scale(0.00048828125,-0.00048828125)"><path d="M0-2C-7 14-16 27-25 37L356 567C262 823 215 952 215 954c0 25 13 38 40 38 9 0 21-2 34-5 21 4 42 12 65 25l27-13L492 748l280 301 64-25 24 25c21-10 41-24 62-43-36-69-87-143-152-222-1-1-60-68-176-2e2L774 223c0-27-21-55-63-84l16-20c-10-29-28-43-55-43-31 0-102 102-215 305L164-76c-22-34-53-51-92-51-42 0-63 17-64 51C1-67-2-52-2-32-2-23-1-13 0-2z"/></g><g id="bullet-char-template-10004" transform="scale(0.00048828125,-0.00048828125)"><path d="M285-33C182-33 111 30 74 156 52 228 41 333 41 471c0 78 14 145 41 201 34 71 87 106 158 106 53 0 88-31 106-94l23-176c8-64 28-97 59-98l735 706c11 11 33 17 66 17 42 0 63-15 63-46V965c0-36-10-64-30-84L442 47C390-6 338-33 285-33z"/></g><g id="bullet-char-template-9679" transform="scale(0.00048828125,-0.00048828125)"><path d="M813 0C632 0 489 54 383 161 276 268 223 411 223 592c0 181 53 324 160 431 106 107 249 161 430 161 179 0 323-54 432-161 108-107 162-251 162-431 0-180-54-324-162-431C1136 54 992 0 813 0z"/></g><g id="bullet-char-template-8226" transform="scale(0.00048828125,-0.00048828125)"><path d="M346 457c-73 0-137 26-191 78-54 51-81 114-81 188 0 73 27 136 81 188 54 52 118 78 191 78 73 0 134-26 185-79 51-51 77-114 77-187 0-75-25-137-76-188-50-52-112-78-186-78z"/></g><g id="bullet-char-template-8211" transform="scale(0.00048828125,-0.00048828125)"><path d="M-4 459H1135V606H-4V459z"/></g><g id="bullet-char-template-61548" transform="scale(0.00048828125,-0.00048828125)"><path d="M173 740c0 163 58 303 173 419 116 115 255 173 419 173 163 0 302-58 418-173 116-116 174-256 174-419 0-163-58-303-174-418-116-116-255-174-418-174-164 0-303 58-419 174C231 437 173 577 173 740z"/></g></defs><g id="id2" class="Master_Slide"></g><g class="SlideGroup"><g id="container-id1"><g id="id1" class="Slide" clip-path="url(#presentation_clip_path)"><g class="Page"><g class="Group"><g class="com.sun.star.drawing.CustomShape"><g id="id3"><path class="BoundingBox" stroke="none" fill="none" d="M998 999h11947v11950H998z"/><path fill="rgb(0,61,145)" stroke="none" d="M6970 1e3c3386 0 5972 2587 5972 5973 0 3386-2586 5973-5972 5973-3386 0-5971-2587-5971-5973C999 3587 3584 1e3 6970 1e3zM999 1e3v0zM12943 12947v0z"/><path fill="none" stroke="rgb(52,101,164)" d="M6970 1e3c3386 0 5972 2587 5972 5973 0 3386-2586 5973-5972 5973-3386 0-5971-2587-5971-5973C999 3587 3584 1e3 6970 1e3z"/><path fill="none" stroke="rgb(52,101,164)" d="M999 1e3v0z"/><path fill="none" stroke="rgb(52,101,164)" d="M12943 12947v0z"/></g></g><g class="com.sun.star.drawing.CustomShape"><g id="id4"><path class="BoundingBox" stroke="none" fill="none" d="M6246 6237h1520v1524H6246z"/><path fill="rgb(255,255,255)" stroke="none" d="M7005 6238c430 0 758 329 758 760 0 431-328 760-758 760-430 0-758-329-758-760 0-431 328-760 758-760zm-758 0v0zM7764 7759v0z"/><path fill="none" stroke="rgb(52,101,164)" d="M7005 6238c430 0 758 329 758 760 0 431-328 760-758 760-430 0-758-329-758-760 0-431 328-760 758-760z"/><path fill="none" stroke="rgb(52,101,164)" d="M6247 6238v0z"/><path fill="none" stroke="rgb(52,101,164)" d="M7764 7759v0z"/></g></g><g class="com.sun.star.drawing.CustomShape"><g id="id5"><path class="BoundingBox" stroke="none" fill="none" d="M6464 11523h1118v1118H6464z"/><path fill="rgb(255,255,255)" stroke="none" d="M6747 11806l282-282 551 551-564 564-551-551 282-282z"/><path fill="none" stroke="rgb(0,0,0)" d="M6747 11806l282-282 551 551-564 564-551-551 282-282z"/></g></g><g class="com.sun.star.drawing.ClosedBezierShape"><g id="id6"><path class="BoundingBox" stroke="none" fill="none" d="M10052 10023h881v880h-881z"/><path fill="rgb(255,255,255)" stroke="none" d="M10931 10901l-587-29c-36 2-75-1-124-12-111-35-226-176-133-366 55-94 122-130 179-143l-134-133 114-114 134 134c12-57 49-123 144-179 190-94 330 21 366 133 13 59 15 105 9 146l28 502 4 61zm-258-96 37 2c-12-1-24-2-37-2z"/><path fill="none" stroke="rgb(0,0,0)" d="M10931 10901l-587-29c-36 2-75-1-124-12-111-35-226-176-133-366 55-94 122-130 179-143l-134-133 114-114 134 134c12-57 49-123 144-179 190-94 330 21 366 133 13 59 15 105 9 146l28 502 4 61z"/><path fill="none" stroke="rgb(0,0,0)" d="M10673 10805l37 2c-12-1-24-2-37-2z"/></g></g><g class="com.sun.star.drawing.ClosedBezierShape"><g id="id7"><path class="BoundingBox" stroke="none" fill="none" d="M10132 2974h1020v1006H10132z"/><path fill="rgb(255,255,255)" stroke="none" d="M10879 2975c154 0 271 117 271 270 0 115-66 209-164 249 63 49 102 125 102 214 0 153-117 270-271 270-144 0-257-103-269-243l-202 201-143-144 183-183c-145-8-253-122-253-269 0-153 117-270 271-270 88 0 164 39 213 101 31-116 134-196 262-196z"/><path fill="none" stroke="rgb(0,0,0)" d="M10879 2975c154 0 271 117 271 270 0 115-66 209-164 249 63 49 102 125 102 214 0 153-117 270-271 270-144 0-257-103-269-243l-202 201-143-144 183-183c-145-8-253-122-253-269 0-153 117-270 271-270 88 0 164 39 213 101 31-116 134-196 262-196z"/></g></g><g class="com.sun.star.drawing.ClosedBezierShape"><g id="id8"><path class="BoundingBox" stroke="none" fill="none" d="M2952 2955h8123v8116H2952z"/><path fill="rgb(0,42,114)" stroke="none" d="M7826 3025l-93 471c-232-45-473-68-721-68-238 0-470 21-693 62l-93-470c176-32 357-54 542-64h490c194 10 384 34 568 69zm1975 989 207 207c154 167 295 347 419 540l-402 269c-257-4e2-592-740-987-1003l269-402c175 117 340 247 494 389zm1272 2995c0 273-25 538-72 793l-473-94c42-225 64-459 64-7e2.0-239-21-471-63-695l473-94c47 254 71 518 71 790zM9288 10405l-269-403c393-258 728-593 987-986l403 269c-294 446-674 827-1121 1120zm-2275 664c-265 0-523-23-772-68l94-473c218 40 444 60 677 60 243 0 480-22 707-65l94 473c-257 48-525 73-8e2 73zM3621 9291l402-269c261 396 6e2 732 998 990l-269 402c-451-293-835-675-1131-1123zM2953 7009c0-272 25-537 72-793l470 94c-41 225-63 458-63 698 0 242 22 478 65 705l-471 93c-48-256-73-523-73-797zM4727 3620l270 399c-386 255-716 584-971 970l-399-270c289-437 663-810 11e2-1099z"/><path fill="none" stroke="rgb(52,101,164)" d="M7826 3025l-93 471c-232-45-473-68-721-68-238 0-470 21-693 62l-93-470c176-32 357-54 542-64h490c194 10 384 34 568 69z"/><path fill="none" stroke="rgb(52,101,164)" d="M9801 4014l207 207c154 167 295 347 419 540l-402 269c-257-4e2-592-740-987-1003l269-402c175 117 340 247 494 389z"/><path fill="none" stroke="rgb(52,101,164)" d="M11073 7009c0 273-25 538-72 793l-473-94c42-225 64-459 64-7e2.0-239-21-471-63-695l473-94c47 254 71 518 71 790z"/><path fill="none" stroke="rgb(52,101,164)" d="M9288 10405l-269-403c393-258 728-593 987-986l403 269c-294 446-674 827-1121 1120z"/><path fill="none" stroke="rgb(52,101,164)" d="M7013 11069c-265 0-523-23-772-68l94-473c218 40 444 60 677 60 243 0 480-22 707-65l94 473c-257 48-525 73-8e2 73z"/><path fill="none" stroke="rgb(52,101,164)" d="M3621 9291l402-269c261 396 6e2 732 998 990l-269 402c-451-293-835-675-1131-1123z"/><path fill="none" stroke="rgb(52,101,164)" d="M2953 7009c0-272 25-537 72-793l470 94c-41 225-63 458-63 698 0 242 22 478 65 705l-471 93c-48-256-73-523-73-797z"/><path fill="none" stroke="rgb(52,101,164)" d="M4727 3620l270 399c-386 255-716 584-971 970l-399-270c289-437 663-810 11e2-1099z"/></g></g><g class="com.sun.star.drawing.ClosedBezierShape"><g id="id9"><path class="BoundingBox" stroke="none" fill="none" d="M11448 6592h1003v898H11448z"/><path fill="rgb(255,255,255)" stroke="none" d="M12042 7465c115 48 317 31 393-148 60-186-89-259-120-277 31-17 180-90 120-276-76-180-278-196-393-147-53 27-89 53-117 80l-441 319-34 24-1 1h1l153 114h1l377 277 1-1c17 11 37 22 60 34z"/><path fill="none" stroke="rgb(0,0,0)" d="M12042 7465c115 48 317 31 393-148 60-186-89-259-120-277 31-17 180-90 120-276-76-180-278-196-393-147-53 27-89 53-117 80l-441 319-34 24-1 1h1l153 114h1l377 277 1-1c17 11 37 22 60 34z"/></g></g><g class="com.sun.star.drawing.CustomShape"><g id="id10"><path class="BoundingBox" stroke="none" fill="none" d="M6428 1455h1118v1118H6428z"/><path fill="rgb(255,255,255)" stroke="none" d="M7262 2289l-282 282-551-551 564-564 551 551-282 282z"/><path fill="none" stroke="rgb(0,0,0)" d="M7262 2289l-282 282-551-551 564-564 551 551-282 282z"/></g></g><g class="com.sun.star.drawing.ClosedBezierShape"><g id="id11"><path class="BoundingBox" stroke="none" fill="none" d="M3094 3210h881v880H3094z"/><path fill="rgb(255,255,255)" stroke="none" d="M3095 3211l587 29c36-2 75 1 124 12 111 35 226 176 133 366-55 94-122 130-179 143l134 133-114 114-134-134c-12 57-49 123-144 179-190 94-330-21-366-133-13-59-15-105-9-146l-28-502-4-61zm258 96-37-2c12 1 24 2 37 2z"/><path fill="none" stroke="rgb(0,0,0)" d="M3095 3211l587 29c36-2 75 1 124 12 111 35 226 176 133 366-55 94-122 130-179 143l134 133-114 114-134-134c-12 57-49 123-144 179-190 94-330-21-366-133-13-59-15-105-9-146l-28-502-4-61z"/><path fill="none" stroke="rgb(0,0,0)" d="M3353 3307l-37-2c12 1 24 2 37 2z"/></g></g><g class="com.sun.star.drawing.ClosedBezierShape"><g id="id12"><path class="BoundingBox" stroke="none" fill="none" d="M2875 10133h1020v1006H2875z"/><path fill="rgb(255,255,255)" stroke="none" d="M3147 11137c-154 0-271-117-271-270 0-115 66-209 164-249-63-49-102-125-102-214 0-153 117-270 271-270 144 0 257 103 269 243l202-201 143 144-183 183c145 8 253 122 253 269 0 153-117 270-271 270-88 0-164-39-213-101-31 116-134 196-262 196z"/><path fill="none" stroke="rgb(0,0,0)" d="M3147 11137c-154 0-271-117-271-270 0-115 66-209 164-249-63-49-102-125-102-214 0-153 117-270 271-270 144 0 257 103 269 243l202-201 143 144-183 183c145 8 253 122 253 269 0 153-117 270-271 270-88 0-164-39-213-101-31 116-134 196-262 196z"/></g></g><g class="com.sun.star.drawing.ClosedBezierShape"><g id="id13"><path class="BoundingBox" stroke="none" fill="none" d="M1576 6623h1003v898H1576z"/><path fill="rgb(255,255,255)" stroke="none" d="M1984 6647c-115-48-317-31-393 148-60 186 89 259 120 277-31 17-180 90-120 276 76 180 278 196 393 147 53-27 89-53 117-80l441-319 34-24 1-1h-1l-153-114h-1l-377-277-1 1c-17-11-37-22-60-34z"/><path fill="none" stroke="rgb(0,0,0)" d="M1984 6647c-115-48-317-31-393 148-60 186 89 259 120 277-31 17-180 90-120 276 76 180 278 196 393 147 53-27 89-53 117-80l441-319 34-24 1-1h-1l-153-114h-1l-377-277-1 1c-17-11-37-22-60-34z"/></g></g><g class="com.sun.star.drawing.ClosedBezierShape"><g id="id14"><path class="BoundingBox" stroke="none" fill="none" d="M3024 3018h7980v7984H3024z"/><path fill="rgb(255,255,255)" stroke="none" d="M7719 10522c478-89 917-269 13e2-521l269 403c-435 286-933 489-1475 591l-94-473zm2287-1507c253-386 433-827 522-1308l473 94c-101 545-305 1046-592 1483l-403-269zm523-2703c-86-470-260-903-504-1283l402-269c278 431 476 924 575 1458l-473 94zM9801 4014c71 66 140 135 207 207l-207-207zm-763 12c-384-257-825-440-1305-531l93-471c545 103 1045 310 1481 6e2l-269 402zM6319 3489c-486 90-933 272-1322 529l-270-399c441-292 948-499 1499-6e2l93 470zM3025 6216c102-551 309-1057 602-1498l399 270c-258 389-441 835-531 1321l-470-93zm472 1496c89 481 271 924 526 1309l-402 269c-289-438-494-939-595-1485l471-93zM6241 11e3c-547-99-1050-301-1489-587l269-402c387 252 831 430 1314 516l-94 473z"/><path fill="none" stroke="rgb(52,101,164)" d="M7719 10522c478-89 917-269 13e2-521l269 403c-435 286-933 489-1475 591l-94-473z"/><path fill="none" stroke="rgb(52,101,164)" d="M10006 9015c253-386 433-827 522-1308l473 94c-101 545-305 1046-592 1483l-403-269z"/><path fill="none" stroke="rgb(52,101,164)" d="M10529 6312c-86-470-260-903-504-1283l402-269c278 431 476 924 575 1458l-473 94z"/><path fill="none" stroke="rgb(52,101,164)" d="M9801 4014c71 66 140 135 207 207l-207-207z"/><path fill="none" stroke="rgb(52,101,164)" d="M9038 4026c-384-257-825-440-1305-531l93-471c545 103 1045 310 1481 6e2l-269 402z"/><path fill="none" stroke="rgb(52,101,164)" d="M6319 3489c-486 90-933 272-1322 529l-270-399c441-292 948-499 1499-6e2l93 470z"/><path fill="none" stroke="rgb(52,101,164)" d="M3025 6216c102-551 309-1057 602-1498l399 270c-258 389-441 835-531 1321l-470-93z"/><path fill="none" stroke="rgb(52,101,164)" d="M3497 7712c89 481 271 924 526 1309l-402 269c-289-438-494-939-595-1485l471-93z"/><path fill="none" stroke="rgb(52,101,164)" d="M6241 11e3c-547-99-1050-301-1489-587l269-402c387 252 831 430 1314 516l-94 473z"/></g></g><g class="com.sun.star.drawing.ClosedBezierShape"><g id="id15"><path class="BoundingBox" stroke="none" fill="none" d="M1574 1e3h10811v3672H1574z"/><path fill="rgb(255,255,255)" stroke="none" d="M6973 1001c2444 0 4472 1348 5410 3372-263 183-625 297-1021 297-734 0-1347-390-1442-890h-26c-95 5e2-709 890-1443 890-734 0-1347-390-1442-890h-26c-95 5e2-709 890-1443 890-734 0-1347-390-1442-890h-26c-95 5e2-709 890-1443 890-413 0-788-124-1054-321 943-2011 2963-3348 5398-3348z"/><path fill="none" stroke="rgb(52,101,164)" d="M6973 1001c2444 0 4472 1348 5410 3372-263 183-625 297-1021 297-734 0-1347-390-1442-890h-26c-95 5e2-709 890-1443 890-734 0-1347-390-1442-890h-26c-95 5e2-709 890-1443 890-734 0-1347-390-1442-890h-26c-95 5e2-709 890-1443 890-413 0-788-124-1054-321 943-2011 2963-3348 5398-3348z"/></g></g></g></g></g></g></g></svg>