<svg version="1.2" width="139.7mm" height="139.7mm" viewBox="0 0 13970 13970" preserveAspectRatio="xMidYMid" fill-rule="evenodd" stroke-width="28.222" stroke-linejoin="round" xmlns="http://www.w3.org/2000/svg" xmlns:ooo="http://xml.openoffice.org/svg/export" xmlns:xlink="http://www.w3.org/1999/xlink" xmlns:presentation="http://sun.com/xmlns/staroffice/presentation" xmlns:smil="http://www.w3.org/2001/SMIL20/" xmlns:anim="urn:oasis:names:tc:opendocument:xmlns:animation:1.0"><defs class="ClipPathGroup"><clipPath id="presentation_clip_path" clipPathUnits="userSpaceOnUse"><path d="M0 0h13970v13970H0z"/></clipPath><clipPath id="presentation_clip_path_shrink" clipPathUnits="userSpaceOnUse"><path d="M13 13h13943v13943H13z"/></clipPath></defs><defs class="TextShapeIndex"></defs><defs class="EmbeddedBulletChars"><g id="bullet-char-template-57356" transform="scale(0.00048828125,-0.00048828125)"><path d="M580 1141l583-570L580 0-4 571l584 570z"/></g><g id="bullet-char-template-57354" transform="scale(0.00048828125,-0.00048828125)"><path d="M8 1128H1137V0H8V1128z"/></g><g id="bullet-char-template-10146" transform="scale(0.00048828125,-0.00048828125)"><path d="M174 0 602 739 174 1481 1456 739 174 0zM1358 739 309 1346 659 739h699z"/></g><g id="bullet-char-template-10132" transform="scale(0.00048828125,-0.00048828125)"><path d="M2015 739 1276 0H717l543 543H174V936H1260L717 1481h557l741-742z"/></g><g id="bullet-char-template-10007" transform="scale(0.00048828125,-0.00048828125)"><path d="M0-2C-7 14-16 27-25 37L356 567C262 823 215 952 215 954c0 25 13 38 40 38 9 0 21-2 34-5 21 4 42 12 65 25l27-13L492 748l280 301 64-25 24 25c21-10 41-24 62-43-36-69-87-143-152-222-1-1-60-68-176-2e2L774 223c0-27-21-55-63-84l16-20c-10-29-28-43-55-43-31 0-102 102-215 305L164-76c-22-34-53-51-92-51-42 0-63 17-64 51C1-67-2-52-2-32-2-23-1-13 0-2z"/></g><g id="bullet-char-template-10004" transform="scale(0.00048828125,-0.00048828125)"><path d="M285-33C182-33 111 30 74 156 52 228 41 333 41 471c0 78 14 145 41 201 34 71 87 106 158 106 53 0 88-31 106-94l23-176c8-64 28-97 59-98l735 706c11 11 33 17 66 17 42 0 63-15 63-46V965c0-36-10-64-30-84L442 47C390-6 338-33 285-33z"/></g><g id="bullet-char-template-9679" transform="scale(0.00048828125,-0.00048828125)"><path d="M813 0C632 0 489 54 383 161 276 268 223 411 223 592c0 181 53 324 160 431 106 107 249 161 430 161 179 0 323-54 432-161 108-107 162-251 162-431 0-180-54-324-162-431C1136 54 992 0 813 0z"/></g><g id="bullet-char-template-8226" transform="scale(0.00048828125,-0.00048828125)"><path d="M346 457c-73 0-137 26-191 78-54 51-81 114-81 188 0 73 27 136 81 188 54 52 118 78 191 78 73 0 134-26 185-79 51-51 77-114 77-187 0-75-25-137-76-188-50-52-112-78-186-78z"/></g><g id="bullet-char-template-8211" transform="scale(0.00048828125,-0.00048828125)"><path d="M-4 459H1135V606H-4V459z"/></g><g id="bullet-char-template-61548" transform="scale(0.00048828125,-0.00048828125)"><path d="M173 740c0 163 58 303 173 419 116 115 255 173 419 173 163 0 302-58 418-173 116-116 174-256 174-419 0-163-58-303-174-418-116-116-255-174-418-174-164 0-303 58-419 174C231 437 173 577 173 740z"/></g></defs><g id="id2" class="Master_Slide"></g><g class="SlideGroup"><g id="container-id1"><g id="id1" class="Slide" clip-path="url(#presentation_clip_path)"><g class="Page"><g class="Group"><g class="com.sun.star.drawing.CustomShape"><g id="id3"><path class="BoundingBox" stroke="none" fill="none" d="M1025 999h11947v11950H1025z"/><path fill="rgb(255,255,255)" stroke="none" d="M6997 1e3c3386 0 5972 2587 5972 5973 0 3386-2586 5973-5972 5973-3386 0-5971-2587-5971-5973 0-3386 2585-5973 5971-5973zm-5971 0v0zM12970 12947v0z"/><path fill="none" stroke="rgb(52,101,164)" d="M6997 1e3c3386 0 5972 2587 5972 5973 0 3386-2586 5973-5972 5973-3386 0-5971-2587-5971-5973 0-3386 2585-5973 5971-5973z"/><path fill="none" stroke="rgb(52,101,164)" d="M1026 1e3v0z"/><path fill="none" stroke="rgb(52,101,164)" d="M12970 12947v0z"/></g></g><g class="com.sun.star.drawing.CustomShape"><g id="id4"><path class="BoundingBox" stroke="none" fill="none" d="M6270 6238h1520v1524H6270z"/><path fill="rgb(255,255,255)" stroke="none" d="M7029 6239c430 0 758 329 758 760 0 431-328 760-758 760-430 0-758-329-758-760 0-431 328-760 758-760zm-758 0v0zM7788 7760v0z"/><path fill="none" stroke="rgb(52,101,164)" d="M7029 6239c430 0 758 329 758 760 0 431-328 760-758 760-430 0-758-329-758-760 0-431 328-760 758-760z"/><path fill="none" stroke="rgb(52,101,164)" d="M6271 6239v0z"/><path fill="none" stroke="rgb(52,101,164)" d="M7788 7760v0z"/></g></g><g class="com.sun.star.drawing.CustomShape"><g id="id5"><path class="BoundingBox" stroke="none" fill="none" d="M4009 3768h220v6608H4009z"/><path fill="rgb(0,0,0)" stroke="none" d="M4119 10374H4010V3769h217v6605H4119z"/><path fill="none" stroke="rgb(52,101,164)" d="M4119 10374H4010V3769h217v6605H4119z"/></g></g><g class="com.sun.star.drawing.CustomShape"><g id="id6"><path class="BoundingBox" stroke="none" fill="none" d="M5885 3750h220v6631H5885z"/><path fill="rgb(0,0,0)" stroke="none" d="M5995 10379H5886V3751h217v6628H5995z"/><path fill="none" stroke="rgb(52,101,164)" d="M5995 10379H5886V3751h217v6628H5995z"/></g></g><g class="com.sun.star.drawing.CustomShape"><g id="id7"><path class="BoundingBox" stroke="none" fill="none" d="M7930 3763h220v6593H7930z"/><path fill="rgb(0,0,0)" stroke="none" d="M8040 10354H7931V3764h217v6590H8040z"/><path fill="none" stroke="rgb(52,101,164)" d="M8040 10354H7931V3764h217v6590H8040z"/></g></g><g class="com.sun.star.drawing.CustomShape"><g id="id8"><path class="BoundingBox" stroke="none" fill="none" d="M9815 3751h220v6591H9815z"/><path fill="rgb(0,0,0)" stroke="none" d="M9925 10340H9816V3752h217v6588H9925z"/><path fill="none" stroke="rgb(52,101,164)" d="M9925 10340H9816V3752h217v6588H9925z"/></g></g><g class="com.sun.star.drawing.CustomShape"><g id="id9"><path class="BoundingBox" stroke="none" fill="none" d="M3145 3454h7749v348H3145z"/><path fill="rgb(0,0,0)" stroke="none" d="M7019 38e2H3146V3455h7746v345H7019z"/><path fill="none" stroke="rgb(52,101,164)" d="M7019 38e2H3146V3455h7746v345H7019z"/></g></g><g class="com.sun.star.drawing.CustomShape"><g id="id10"><path class="BoundingBox" stroke="none" fill="none" d="M3144 10299h7749v348H3144z"/><path fill="rgb(0,0,0)" stroke="none" d="M7018 10645H3145v-345h7746v345H7018z"/><path fill="none" stroke="rgb(52,101,164)" d="M7018 10645H3145v-345h7746v345H7018z"/></g></g><g class="com.sun.star.drawing.CustomShape"><g id="id11"><path class="BoundingBox" stroke="none" fill="none" d="M3163 5316h7749v348H3163z"/><path fill="rgb(0,0,0)" stroke="none" d="M7037 5662H3164V5317h7746v345H7037z"/><path fill="none" stroke="rgb(52,101,164)" d="M7037 5662H3164V5317h7746v345H7037z"/></g></g><g class="com.sun.star.drawing.CustomShape"><g id="id12"><path class="BoundingBox" stroke="none" fill="none" d="M3475 3892h1303v461H3475z"/><path fill="rgb(0,0,0)" stroke="none" d="M4125 3893c368 0 650 99 650 228 0 129-282 229-650 229-368 0-649-1e2-649-229 0-129 281-228 649-228zm-649 0v0zm13e2 458v0z"/><path fill="none" stroke="rgb(52,101,164)" d="M4125 3893c368 0 650 99 650 228 0 129-282 229-650 229-368 0-649-1e2-649-229 0-129 281-228 649-228z"/><path fill="none" stroke="rgb(52,101,164)" d="M3476 3893v0z"/><path fill="none" stroke="rgb(52,101,164)" d="M4776 4351v0z"/></g></g><g class="com.sun.star.drawing.CustomShape"><g id="id13"><path class="BoundingBox" stroke="none" fill="none" d="M5340 3883h1303v461H5340z"/><path fill="rgb(0,0,0)" stroke="none" d="M5990 3884c368 0 650 99 650 228 0 129-282 229-650 229-368 0-649-1e2-649-229 0-129 281-228 649-228zm-649 0v0zm13e2 458v0z"/><path fill="none" stroke="rgb(52,101,164)" d="M5990 3884c368 0 650 99 650 228 0 129-282 229-650 229-368 0-649-1e2-649-229 0-129 281-228 649-228z"/><path fill="none" stroke="rgb(52,101,164)" d="M5341 3884v0z"/><path fill="none" stroke="rgb(52,101,164)" d="M6641 4342v0z"/></g></g><g class="com.sun.star.drawing.CustomShape"><g id="id14"><path class="BoundingBox" stroke="none" fill="none" d="M74e2 3907h1303v461H74e2z"/><path fill="rgb(0,0,0)" stroke="none" d="M8050 3908c368 0 650 99 650 228 0 129-282 229-650 229-368 0-649-1e2-649-229 0-129 281-228 649-228zm-649 0v0zm13e2 458v0z"/><path fill="none" stroke="rgb(52,101,164)" d="M8050 3908c368 0 650 99 650 228 0 129-282 229-650 229-368 0-649-1e2-649-229 0-129 281-228 649-228z"/><path fill="none" stroke="rgb(52,101,164)" d="M7401 3908v0z"/><path fill="none" stroke="rgb(52,101,164)" d="M8701 4366v0z"/></g></g><g class="com.sun.star.drawing.CustomShape"><g id="id15"><path class="BoundingBox" stroke="none" fill="none" d="M9265 3898h1303v461H9265z"/><path fill="rgb(0,0,0)" stroke="none" d="M9915 3899c368 0 650 99 650 228 0 129-282 229-650 229-368 0-649-1e2-649-229 0-129 281-228 649-228zm-649 0v0zm13e2 458v0z"/><path fill="none" stroke="rgb(52,101,164)" d="M9915 3899c368 0 650 99 650 228 0 129-282 229-650 229-368 0-649-1e2-649-229 0-129 281-228 649-228z"/><path fill="none" stroke="rgb(52,101,164)" d="M9266 3899v0z"/><path fill="none" stroke="rgb(52,101,164)" d="M10566 4357v0z"/></g></g><g class="com.sun.star.drawing.CustomShape"><g id="id16"><path class="BoundingBox" stroke="none" fill="none" d="M3494 9691h1303v461H3494z"/><path fill="rgb(0,0,0)" stroke="none" d="M4144 9692c368 0 650 99 650 228 0 129-282 229-650 229-368 0-649-1e2-649-229 0-129 281-228 649-228zm-649 0v0zm13e2 458v0z"/><path fill="none" stroke="rgb(52,101,164)" d="M4144 9692c368 0 650 99 650 228 0 129-282 229-650 229-368 0-649-1e2-649-229 0-129 281-228 649-228z"/><path fill="none" stroke="rgb(52,101,164)" d="M3495 9692v0z"/><path fill="none" stroke="rgb(52,101,164)" d="M4795 10150v0z"/></g></g><g class="com.sun.star.drawing.CustomShape"><g id="id17"><path class="BoundingBox" stroke="none" fill="none" d="M5359 9685h1303v461H5359z"/><path fill="rgb(0,0,0)" stroke="none" d="M6009 9686c368 0 650 99 650 228 0 129-282 229-650 229-368 0-649-1e2-649-229 0-129 281-228 649-228zm-649 0v0zm13e2 458v0z"/><path fill="none" stroke="rgb(52,101,164)" d="M6009 9686c368 0 650 99 650 228 0 129-282 229-650 229-368 0-649-1e2-649-229 0-129 281-228 649-228z"/><path fill="none" stroke="rgb(52,101,164)" d="M5360 9686v0z"/><path fill="none" stroke="rgb(52,101,164)" d="M6660 10144v0z"/></g></g><g class="com.sun.star.drawing.CustomShape"><g id="id18"><path class="BoundingBox" stroke="none" fill="none" d="M7419 9706h1303v461H7419z"/><path fill="rgb(0,0,0)" stroke="none" d="M8069 9707c368 0 650 99 650 228 0 129-282 229-650 229-368 0-649-1e2-649-229 0-129 281-228 649-228zm-649 0v0zm13e2 458v0z"/><path fill="none" stroke="rgb(52,101,164)" d="M8069 9707c368 0 650 99 650 228 0 129-282 229-650 229-368 0-649-1e2-649-229 0-129 281-228 649-228z"/><path fill="none" stroke="rgb(52,101,164)" d="M7420 9707v0z"/><path fill="none" stroke="rgb(52,101,164)" d="M8720 10165v0z"/></g></g><g class="com.sun.star.drawing.CustomShape"><g id="id19"><path class="BoundingBox" stroke="none" fill="none" d="M9284 97e2h1303v461H9284z"/><path fill="rgb(0,0,0)" stroke="none" d="M9934 9701c368 0 650 99 650 228 0 129-282 229-650 229-368 0-649-1e2-649-229 0-129 281-228 649-228zm-649 0v0zm13e2 458v0z"/><path fill="none" stroke="rgb(52,101,164)" d="M9934 9701c368 0 650 99 650 228 0 129-282 229-650 229-368 0-649-1e2-649-229 0-129 281-228 649-228z"/><path fill="none" stroke="rgb(52,101,164)" d="M9285 9701v0z"/><path fill="none" stroke="rgb(52,101,164)" d="M10585 10159v0z"/></g></g><g class="com.sun.star.drawing.CustomShape"><g id="id20"><path class="BoundingBox" stroke="none" fill="none" d="M3494 9124h1303v461H3494z"/><path fill="rgb(0,0,0)" stroke="none" d="M4144 9125c368 0 650 99 650 228 0 129-282 229-650 229-368 0-649-1e2-649-229 0-129 281-228 649-228zm-649 0v0zm13e2 458v0z"/><path fill="none" stroke="rgb(52,101,164)" d="M4144 9125c368 0 650 99 650 228 0 129-282 229-650 229-368 0-649-1e2-649-229 0-129 281-228 649-228z"/><path fill="none" stroke="rgb(52,101,164)" d="M3495 9125v0z"/><path fill="none" stroke="rgb(52,101,164)" d="M4795 9583v0z"/></g></g><g class="com.sun.star.drawing.CustomShape"><g id="id21"><path class="BoundingBox" stroke="none" fill="none" d="M5359 9118h1303v461H5359z"/><path fill="rgb(0,0,0)" stroke="none" d="M6009 9119c368 0 650 99 650 228 0 129-282 229-650 229-368 0-649-1e2-649-229 0-129 281-228 649-228zm-649 0v0zm13e2 458v0z"/><path fill="none" stroke="rgb(52,101,164)" d="M6009 9119c368 0 650 99 650 228 0 129-282 229-650 229-368 0-649-1e2-649-229 0-129 281-228 649-228z"/><path fill="none" stroke="rgb(52,101,164)" d="M5360 9119v0z"/><path fill="none" stroke="rgb(52,101,164)" d="M6660 9577v0z"/></g></g><g class="com.sun.star.drawing.CustomShape"><g id="id22"><path class="BoundingBox" stroke="none" fill="none" d="M7419 9139h1303v461H7419z"/><path fill="rgb(0,0,0)" stroke="none" d="M8069 9140c368 0 650 99 650 228 0 129-282 229-650 229-368 0-649-1e2-649-229 0-129 281-228 649-228zm-649 0v0zm13e2 458v0z"/><path fill="none" stroke="rgb(52,101,164)" d="M8069 9140c368 0 650 99 650 228 0 129-282 229-650 229-368 0-649-1e2-649-229 0-129 281-228 649-228z"/><path fill="none" stroke="rgb(52,101,164)" d="M7420 9140v0z"/><path fill="none" stroke="rgb(52,101,164)" d="M8720 9598v0z"/></g></g><g class="com.sun.star.drawing.CustomShape"><g id="id23"><path class="BoundingBox" stroke="none" fill="none" d="M9284 9133h1303v461H9284z"/><path fill="rgb(0,0,0)" stroke="none" d="M9934 9134c368 0 650 99 650 228 0 129-282 229-650 229-368 0-649-1e2-649-229 0-129 281-228 649-228zm-649 0v0zm13e2 458v0z"/><path fill="none" stroke="rgb(52,101,164)" d="M9934 9134c368 0 650 99 650 228 0 129-282 229-650 229-368 0-649-1e2-649-229 0-129 281-228 649-228z"/><path fill="none" stroke="rgb(52,101,164)" d="M9285 9134v0z"/><path fill="none" stroke="rgb(52,101,164)" d="M10585 9592v0z"/></g></g><g class="com.sun.star.drawing.CustomShape"><g id="id24"><path class="BoundingBox" stroke="none" fill="none" d="M3475 8519h1303v461H3475z"/><path fill="rgb(0,0,0)" stroke="none" d="M4125 8520c368 0 650 99 650 228 0 129-282 229-650 229-368 0-649-1e2-649-229 0-129 281-228 649-228zm-649 0v0zm13e2 458v0z"/><path fill="none" stroke="rgb(52,101,164)" d="M4125 8520c368 0 650 99 650 228 0 129-282 229-650 229-368 0-649-1e2-649-229 0-129 281-228 649-228z"/><path fill="none" stroke="rgb(52,101,164)" d="M3476 8520v0z"/><path fill="none" stroke="rgb(52,101,164)" d="M4776 8978v0z"/></g></g><g class="com.sun.star.drawing.CustomShape"><g id="id25"><path class="BoundingBox" stroke="none" fill="none" d="M5340 8513h1303v461H5340z"/><path fill="rgb(0,0,0)" stroke="none" d="M5990 8514c368 0 650 99 650 228 0 129-282 229-650 229-368 0-649-1e2-649-229 0-129 281-228 649-228zm-649 0v0zm13e2 458v0z"/><path fill="none" stroke="rgb(52,101,164)" d="M5990 8514c368 0 650 99 650 228 0 129-282 229-650 229-368 0-649-1e2-649-229 0-129 281-228 649-228z"/><path fill="none" stroke="rgb(52,101,164)" d="M5341 8514v0z"/><path fill="none" stroke="rgb(52,101,164)" d="M6641 8972v0z"/></g></g><g class="com.sun.star.drawing.CustomShape"><g id="id26"><path class="BoundingBox" stroke="none" fill="none" d="M74e2 8534h1303v461H74e2z"/><path fill="rgb(0,0,0)" stroke="none" d="M8050 8535c368 0 650 99 650 228 0 129-282 229-650 229-368 0-649-1e2-649-229 0-129 281-228 649-228zm-649 0v0zm13e2 458v0z"/><path fill="none" stroke="rgb(52,101,164)" d="M8050 8535c368 0 650 99 650 228 0 129-282 229-650 229-368 0-649-1e2-649-229 0-129 281-228 649-228z"/><path fill="none" stroke="rgb(52,101,164)" d="M7401 8535v0z"/><path fill="none" stroke="rgb(52,101,164)" d="M8701 8993v0z"/></g></g><g class="com.sun.star.drawing.CustomShape"><g id="id27"><path class="BoundingBox" stroke="none" fill="none" d="M9265 8528h1303v461H9265z"/><path fill="rgb(0,0,0)" stroke="none" d="M9915 8529c368 0 650 99 650 228 0 129-282 229-650 229-368 0-649-1e2-649-229 0-129 281-228 649-228zm-649 0v0zm13e2 458v0z"/><path fill="none" stroke="rgb(52,101,164)" d="M9915 8529c368 0 650 99 650 228 0 129-282 229-650 229-368 0-649-1e2-649-229 0-129 281-228 649-228z"/><path fill="none" stroke="rgb(52,101,164)" d="M9266 8529v0z"/><path fill="none" stroke="rgb(52,101,164)" d="M10566 8987v0z"/></g></g><g class="com.sun.star.drawing.CustomShape"><g id="id28"><path class="BoundingBox" stroke="none" fill="none" d="M3490 7915h1303v461H3490z"/><path fill="rgb(0,0,0)" stroke="none" d="M4140 7916c368 0 650 99 650 228 0 129-282 229-650 229-368 0-649-1e2-649-229 0-129 281-228 649-228zm-649 0v0zm13e2 458v0z"/><path fill="none" stroke="rgb(52,101,164)" d="M4140 7916c368 0 650 99 650 228 0 129-282 229-650 229-368 0-649-1e2-649-229 0-129 281-228 649-228z"/><path fill="none" stroke="rgb(52,101,164)" d="M3491 7916v0z"/><path fill="none" stroke="rgb(52,101,164)" d="M4791 8374v0z"/></g></g><g class="com.sun.star.drawing.CustomShape"><g id="id29"><path class="BoundingBox" stroke="none" fill="none" d="M7415 7930h1303v461H7415z"/><path fill="rgb(0,0,0)" stroke="none" d="M8065 7931c368 0 650 99 650 228 0 129-282 229-650 229-368 0-649-1e2-649-229 0-129 281-228 649-228zm-649 0v0zm13e2 458v0z"/><path fill="none" stroke="rgb(52,101,164)" d="M8065 7931c368 0 650 99 650 228 0 129-282 229-650 229-368 0-649-1e2-649-229 0-129 281-228 649-228z"/><path fill="none" stroke="rgb(52,101,164)" d="M7416 7931v0z"/><path fill="none" stroke="rgb(52,101,164)" d="M8716 8389v0z"/></g></g><g class="com.sun.star.drawing.CustomShape"><g id="id30"><path class="BoundingBox" stroke="none" fill="none" d="M5340 5754h1303v461H5340z"/><path fill="rgb(0,0,0)" stroke="none" d="M5990 5755c368 0 650 99 650 228 0 129-282 229-650 229-368 0-649-1e2-649-229 0-129 281-228 649-228zm-649 0v0zm13e2 458v0z"/><path fill="none" stroke="rgb(52,101,164)" d="M5990 5755c368 0 650 99 650 228 0 129-282 229-650 229-368 0-649-1e2-649-229 0-129 281-228 649-228z"/><path fill="none" stroke="rgb(52,101,164)" d="M5341 5755v0z"/><path fill="none" stroke="rgb(52,101,164)" d="M6641 6213v0z"/></g></g><g class="com.sun.star.drawing.CustomShape"><g id="id31"><path class="BoundingBox" stroke="none" fill="none" d="M9265 5769h1303v461H9265z"/><path fill="rgb(0,0,0)" stroke="none" d="M9915 5770c368 0 650 99 650 228 0 129-282 229-650 229-368 0-649-1e2-649-229 0-129 281-228 649-228zm-649 0v0zm13e2 458v0z"/><path fill="none" stroke="rgb(52,101,164)" d="M9915 5770c368 0 650 99 650 228 0 129-282 229-650 229-368 0-649-1e2-649-229 0-129 281-228 649-228z"/><path fill="none" stroke="rgb(52,101,164)" d="M9266 5770v0z"/><path fill="none" stroke="rgb(52,101,164)" d="M10566 6228v0z"/></g></g></g></g></g></g></g></svg>