<svg version="1.2" width="139.7mm" height="139.7mm" viewBox="0 0 13970 13970" preserveAspectRatio="xMidYMid" fill-rule="evenodd" stroke-width="28.222" stroke-linejoin="round" xmlns="http://www.w3.org/2000/svg" xmlns:ooo="http://xml.openoffice.org/svg/export" xmlns:xlink="http://www.w3.org/1999/xlink" xmlns:presentation="http://sun.com/xmlns/staroffice/presentation" xmlns:smil="http://www.w3.org/2001/SMIL20/" xmlns:anim="urn:oasis:names:tc:opendocument:xmlns:animation:1.0"><defs class="ClipPathGroup"><clipPath id="presentation_clip_path" clipPathUnits="userSpaceOnUse"><path d="M0 0h13970v13970H0z"/></clipPath><clipPath id="presentation_clip_path_shrink" clipPathUnits="userSpaceOnUse"><path d="M13 13h13943v13943H13z"/></clipPath></defs><defs class="TextShapeIndex"></defs><defs class="EmbeddedBulletChars"><g id="bullet-char-template-57356" transform="scale(0.00048828125,-0.00048828125)"><path d="M580 1141l583-570L580 0-4 571l584 570z"/></g><g id="bullet-char-template-57354" transform="scale(0.00048828125,-0.00048828125)"><path d="M8 1128H1137V0H8V1128z"/></g><g id="bullet-char-template-10146" transform="scale(0.00048828125,-0.00048828125)"><path d="M174 0 602 739 174 1481 1456 739 174 0zM1358 739 309 1346 659 739h699z"/></g><g id="bullet-char-template-10132" transform="scale(0.00048828125,-0.00048828125)"><path d="M2015 739 1276 0H717l543 543H174V936H1260L717 1481h557l741-742z"/></g><g id="bullet-char-template-10007" transform="scale(0.00048828125,-0.00048828125)"><path d="M0-2C-7 14-16 27-25 37L356 567C262 823 215 952 215 954c0 25 13 38 40 38 9 0 21-2 34-5 21 4 42 12 65 25l27-13L492 748l280 301 64-25 24 25c21-10 41-24 62-43-36-69-87-143-152-222-1-1-60-68-176-2e2L774 223c0-27-21-55-63-84l16-20c-10-29-28-43-55-43-31 0-102 102-215 305L164-76c-22-34-53-51-92-51-42 0-63 17-64 51C1-67-2-52-2-32-2-23-1-13 0-2z"/></g><g id="bullet-char-template-10004" transform="scale(0.00048828125,-0.00048828125)"><path d="M285-33C182-33 111 30 74 156 52 228 41 333 41 471c0 78 14 145 41 201 34 71 87 106 158 106 53 0 88-31 106-94l23-176c8-64 28-97 59-98l735 706c11 11 33 17 66 17 42 0 63-15 63-46V965c0-36-10-64-30-84L442 47C390-6 338-33 285-33z"/></g><g id="bullet-char-template-9679" transform="scale(0.00048828125,-0.00048828125)"><path d="M813 0C632 0 489 54 383 161 276 268 223 411 223 592c0 181 53 324 160 431 106 107 249 161 430 161 179 0 323-54 432-161 108-107 162-251 162-431 0-180-54-324-162-431C1136 54 992 0 813 0z"/></g><g id="bullet-char-template-8226" transform="scale(0.00048828125,-0.00048828125)"><path d="M346 457c-73 0-137 26-191 78-54 51-81 114-81 188 0 73 27 136 81 188 54 52 118 78 191 78 73 0 134-26 185-79 51-51 77-114 77-187 0-75-25-137-76-188-50-52-112-78-186-78z"/></g><g id="bullet-char-template-8211" transform="scale(0.00048828125,-0.00048828125)"><path d="M-4 459H1135V606H-4V459z"/></g><g id="bullet-char-template-61548" transform="scale(0.00048828125,-0.00048828125)"><path d="M173 740c0 163 58 303 173 419 116 115 255 173 419 173 163 0 302-58 418-173 116-116 174-256 174-419 0-163-58-303-174-418-116-116-255-174-418-174-164 0-303 58-419 174C231 437 173 577 173 740z"/></g></defs><g id="id2" class="Master_Slide"></g><g class="SlideGroup"><g id="container-id1"><g id="id1" class="Slide" clip-path="url(#presentation_clip_path)"><g class="Page"><g class="Group"><g class="com.sun.star.drawing.CustomShape"><g id="id3"><path class="BoundingBox" stroke="none" fill="none" d="M998 999h11947v11950H998z"/><path fill="rgb(250,166,26)" stroke="none" d="M6970 1e3c3386 0 5972 2587 5972 5973 0 3386-2586 5973-5972 5973-3386 0-5971-2587-5971-5973C999 3587 3584 1e3 6970 1e3zM999 1e3v0zM12943 12947v0z"/><path fill="none" stroke="rgb(52,101,164)" d="M6970 1e3c3386 0 5972 2587 5972 5973 0 3386-2586 5973-5972 5973-3386 0-5971-2587-5971-5973C999 3587 3584 1e3 6970 1e3z"/><path fill="none" stroke="rgb(52,101,164)" d="M999 1e3v0z"/><path fill="none" stroke="rgb(52,101,164)" d="M12943 12947v0z"/></g></g><g class="com.sun.star.drawing.CustomShape"><g id="id4"><path class="BoundingBox" stroke="none" fill="none" d="M6243 6238h1520v1524H6243z"/><path fill="rgb(255,255,255)" stroke="none" d="M7002 6239c430 0 758 329 758 760 0 431-328 760-758 760-430 0-758-329-758-760 0-431 328-760 758-760zm-758 0v0zM7761 7760v0z"/><path fill="none" stroke="rgb(52,101,164)" d="M7002 6239c430 0 758 329 758 760 0 431-328 760-758 760-430 0-758-329-758-760 0-431 328-760 758-760z"/><path fill="none" stroke="rgb(52,101,164)" d="M6244 6239v0z"/><path fill="none" stroke="rgb(52,101,164)" d="M7761 7760v0z"/></g></g><g class="com.sun.star.drawing.CustomShape"><g id="id5"><path class="BoundingBox" stroke="none" fill="none" d="M2029 1984h9965v9965H2029z"/><path fill="rgb(60,140,29)" stroke="none" d="M7010 1985c2824 0 4981 2156 4981 4980 0 2824-2157 4981-4981 4981-2824 0-4980-2157-4980-4981 0-2824 2156-4980 4980-4980zm0 2490c1412 0 2490 1078 2490 2490 0 1412-1078 2490-2490 2490-1412 0-2490-1078-2490-2490 0-1412 1078-2490 2490-2490zM2030 1985v0zm9962 9962v0z"/><path fill="none" stroke="rgb(52,101,164)" d="M7010 1985c2824 0 4981 2156 4981 4980 0 2824-2157 4981-4981 4981-2824 0-4980-2157-4980-4981 0-2824 2156-4980 4980-4980z"/><path fill="none" stroke="rgb(52,101,164)" d="M7010 4475c1412 0 2490 1078 2490 2490 0 1412-1078 2490-2490 2490-1412 0-2490-1078-2490-2490 0-1412 1078-2490 2490-2490z"/><path fill="none" stroke="rgb(52,101,164)" d="M2030 1985v0z"/><path fill="none" stroke="rgb(52,101,164)" d="M11992 11947v0z"/></g></g><g class="com.sun.star.drawing.ClosedBezierShape"><g id="id6"><path class="BoundingBox" stroke="none" fill="none" d="M4920 2982h4273v2804H4920z"/><path fill="rgb(204,7,0)" stroke="none" d="M4921 5149V2983l1661 843c73-179 247-3e2 457-3e2 216 0 393 127 462 314l1690-857V5149L7466 4274c-20 36-45 68-74 97l444 1302-626 111-27-1290c-45 13-93 20-144 20-55 0-108-8-157-24l-27 1294-626-111 447-1312c-21-23-40-47-56-74L4921 5149z"/><path fill="none" stroke="rgb(52,101,164)" d="M4921 5149V2983l1661 843c73-179 247-3e2 457-3e2 216 0 393 127 462 314l1690-857V5149L7466 4274c-20 36-45 68-74 97l444 1302-626 111-27-1290c-45 13-93 20-144 20-55 0-108-8-157-24l-27 1294-626-111 447-1312c-21-23-40-47-56-74L4921 5149z"/></g></g><g class="com.sun.star.drawing.CustomShape"><g id="id7"><path class="BoundingBox" stroke="none" fill="none" d="M3164 4980h937v937H3164z"/><path fill="rgb(0,105,209)" stroke="none" d="M3631 4981c264 0 467 202 467 466 0 264-203 467-467 467-264 0-466-203-466-467 0-264 202-466 466-466zm-466 0v0zm934 934v0z"/><path fill="none" stroke="rgb(52,101,164)" d="M3631 4981c264 0 467 202 467 466 0 264-203 467-467 467-264 0-466-203-466-467 0-264 202-466 466-466z"/><path fill="none" stroke="rgb(52,101,164)" d="M3165 4981v0z"/><path fill="none" stroke="rgb(52,101,164)" d="M4099 5915v0z"/></g></g><g class="com.sun.star.drawing.CustomShape"><g id="id8"><path class="BoundingBox" stroke="none" fill="none" d="M2417 6318h937v937H2417z"/><path fill="rgb(255,186,42)" stroke="none" d="M2884 6319c264 0 467 202 467 466 0 264-203 467-467 467-264 0-466-203-466-467 0-264 202-466 466-466zm-466 0v0zm934 934v0z"/><path fill="none" stroke="rgb(52,101,164)" d="M2884 6319c264 0 467 202 467 466 0 264-203 467-467 467-264 0-466-203-466-467 0-264 202-466 466-466z"/><path fill="none" stroke="rgb(52,101,164)" d="M2418 6319v0z"/><path fill="none" stroke="rgb(52,101,164)" d="M3352 7253v0z"/></g></g><g class="com.sun.star.drawing.CustomShape"><g id="id9"><path class="BoundingBox" stroke="none" fill="none" d="M3507 7314h937v937H3507z"/><path fill="rgb(204,7,0)" stroke="none" d="M3974 7315c264 0 467 202 467 466 0 264-203 467-467 467-264 0-466-203-466-467 0-264 202-466 466-466zm-466 0v0zm934 934v0z"/><path fill="none" stroke="rgb(52,101,164)" d="M3974 7315c264 0 467 202 467 466 0 264-203 467-467 467-264 0-466-203-466-467 0-264 202-466 466-466z"/><path fill="none" stroke="rgb(52,101,164)" d="M3508 7315v0z"/><path fill="none" stroke="rgb(52,101,164)" d="M4442 8249v0z"/></g></g><g class="com.sun.star.drawing.CustomShape"><g id="id10"><path class="BoundingBox" stroke="none" fill="none" d="M3070 8777h937v937H3070z"/><path fill="rgb(0,105,209)" stroke="none" d="M3537 8778c264 0 467 202 467 466 0 264-203 467-467 467-264 0-466-203-466-467 0-264 202-466 466-466zm-466 0v0zm934 934v0z"/><path fill="none" stroke="rgb(52,101,164)" d="M3537 8778c264 0 467 202 467 466 0 264-203 467-467 467-264 0-466-203-466-467 0-264 202-466 466-466z"/><path fill="none" stroke="rgb(52,101,164)" d="M3071 8778v0z"/><path fill="none" stroke="rgb(52,101,164)" d="M4005 9712v0z"/></g></g><g class="com.sun.star.drawing.CustomShape"><g id="id11"><path class="BoundingBox" stroke="none" fill="none" d="M4689 9026h937v937H4689z"/><path fill="rgb(255,186,42)" stroke="none" d="M5156 9027c264 0 467 202 467 466 0 264-203 467-467 467-264 0-466-203-466-467 0-264 202-466 466-466zm-466 0v0zm934 934v0z"/><path fill="none" stroke="rgb(52,101,164)" d="M5156 9027c264 0 467 202 467 466 0 264-203 467-467 467-264 0-466-203-466-467 0-264 202-466 466-466z"/><path fill="none" stroke="rgb(52,101,164)" d="M4690 9027v0z"/><path fill="none" stroke="rgb(52,101,164)" d="M5624 9961v0z"/></g></g><g class="com.sun.star.drawing.CustomShape"><g id="id12"><path class="BoundingBox" stroke="none" fill="none" d="M5530 10583h937v937H5530z"/><path fill="rgb(204,7,0)" stroke="none" d="M5997 10584c264 0 467 202 467 466 0 264-203 467-467 467-264 0-466-203-466-467 0-264 202-466 466-466zm-466 0v0zm934 934v0z"/><path fill="none" stroke="rgb(52,101,164)" d="M5997 10584c264 0 467 202 467 466 0 264-203 467-467 467-264 0-466-203-466-467 0-264 202-466 466-466z"/><path fill="none" stroke="rgb(52,101,164)" d="M5531 10584v0z"/><path fill="none" stroke="rgb(52,101,164)" d="M6465 11518v0z"/></g></g><g class="com.sun.star.drawing.CustomShape"><g id="id13"><path class="BoundingBox" stroke="none" fill="none" d="M6962 9680h937v937H6962z"/><path fill="rgb(255,186,42)" stroke="none" d="M7429 9681c264 0 467 202 467 466 0 264-203 467-467 467-264 0-466-203-466-467 0-264 202-466 466-466zm-466 0v0zm934 934v0z"/><path fill="none" stroke="rgb(52,101,164)" d="M7429 9681c264 0 467 202 467 466 0 264-203 467-467 467-264 0-466-203-466-467 0-264 202-466 466-466z"/><path fill="none" stroke="rgb(52,101,164)" d="M6963 9681v0z"/><path fill="none" stroke="rgb(52,101,164)" d="M7897 10615v0z"/></g></g><g class="com.sun.star.drawing.CustomShape"><g id="id14"><path class="BoundingBox" stroke="none" fill="none" d="M8705 10271h937v937H8705z"/><path fill="rgb(0,105,209)" stroke="none" d="M9172 10272c264 0 467 202 467 466 0 264-203 467-467 467-264 0-466-203-466-467 0-264 202-466 466-466zm-466 0v0zm934 934v0z"/><path fill="none" stroke="rgb(52,101,164)" d="M9172 10272c264 0 467 202 467 466 0 264-203 467-467 467-264 0-466-203-466-467 0-264 202-466 466-466z"/><path fill="none" stroke="rgb(52,101,164)" d="M8706 10272v0z"/><path fill="none" stroke="rgb(52,101,164)" d="M9640 11206v0z"/></g></g><g class="com.sun.star.drawing.CustomShape"><g id="id15"><path class="BoundingBox" stroke="none" fill="none" d="M9265 7999h937v937H9265z"/><path fill="rgb(255,186,42)" stroke="none" d="M9732 8e3c264 0 467 202 467 466 0 264-203 467-467 467-264 0-466-203-466-467 0-264 202-466 466-466zm-466 0v0zm934 934v0z"/><path fill="none" stroke="rgb(52,101,164)" d="M9732 8e3c264 0 467 202 467 466 0 264-203 467-467 467-264 0-466-203-466-467 0-264 202-466 466-466z"/><path fill="none" stroke="rgb(52,101,164)" d="M9266 8e3v0z"/><path fill="none" stroke="rgb(52,101,164)" d="M102e2 8934v0z"/></g></g><g class="com.sun.star.drawing.CustomShape"><g id="id16"><path class="BoundingBox" stroke="none" fill="none" d="M9638 9338h937v937H9638z"/><path fill="rgb(204,7,0)" stroke="none" d="M10105 9339c264 0 467 202 467 466 0 264-203 467-467 467-264 0-466-203-466-467 0-264 202-466 466-466zm-466 0v0zm934 934v0z"/><path fill="none" stroke="rgb(52,101,164)" d="M10105 9339c264 0 467 202 467 466 0 264-203 467-467 467-264 0-466-203-466-467 0-264 202-466 466-466z"/><path fill="none" stroke="rgb(52,101,164)" d="M9639 9339v0z"/><path fill="none" stroke="rgb(52,101,164)" d="M10573 10273v0z"/></g></g><g class="com.sun.star.drawing.CustomShape"><g id="id17"><path class="BoundingBox" stroke="none" fill="none" d="M10790 7595h937v937h-937z"/><path fill="rgb(204,7,0)" stroke="none" d="M11257 7596c264 0 467 202 467 466 0 264-203 467-467 467-264 0-466-203-466-467 0-264 202-466 466-466zm-466 0v0zm934 934v0z"/><path fill="none" stroke="rgb(52,101,164)" d="M11257 7596c264 0 467 202 467 466 0 264-203 467-467 467-264 0-466-203-466-467 0-264 202-466 466-466z"/><path fill="none" stroke="rgb(52,101,164)" d="M10791 7596v0z"/><path fill="none" stroke="rgb(52,101,164)" d="M11725 8530v0z"/></g></g><g class="com.sun.star.drawing.CustomShape"><g id="id18"><path class="BoundingBox" stroke="none" fill="none" d="M9888 6412h937v937H9888z"/><path fill="rgb(0,105,209)" stroke="none" d="M10355 6413c264 0 467 202 467 466 0 264-203 467-467 467-264 0-466-203-466-467 0-264 202-466 466-466zm-466 0v0zm934 934v0z"/><path fill="none" stroke="rgb(52,101,164)" d="M10355 6413c264 0 467 202 467 466 0 264-203 467-467 467-264 0-466-203-466-467 0-264 202-466 466-466z"/><path fill="none" stroke="rgb(52,101,164)" d="M9889 6413v0z"/><path fill="none" stroke="rgb(52,101,164)" d="M10823 7347v0z"/></g></g><g class="com.sun.star.drawing.CustomShape"><g id="id19"><path class="BoundingBox" stroke="none" fill="none" d="M10416 5043h937v937h-937z"/><path fill="rgb(204,7,0)" stroke="none" d="M10883 5044c264 0 467 202 467 466 0 264-203 467-467 467-264 0-466-203-466-467 0-264 202-466 466-466zm-466 0v0zm934 934v0z"/><path fill="none" stroke="rgb(52,101,164)" d="M10883 5044c264 0 467 202 467 466 0 264-203 467-467 467-264 0-466-203-466-467 0-264 202-466 466-466z"/><path fill="none" stroke="rgb(52,101,164)" d="M10417 5044v0z"/><path fill="none" stroke="rgb(52,101,164)" d="M11351 5978v0z"/></g></g><g class="com.sun.star.drawing.CustomShape"><g id="id20"><path class="BoundingBox" stroke="none" fill="none" d="M9359 3642h937v937H9359z"/><path fill="rgb(0,105,209)" stroke="none" d="M9826 3643c264 0 467 202 467 466 0 264-203 467-467 467-264 0-466-203-466-467 0-264 202-466 466-466zm-466 0v0zm934 934v0z"/><path fill="none" stroke="rgb(52,101,164)" d="M9826 3643c264 0 467 202 467 466 0 264-203 467-467 467-264 0-466-203-466-467 0-264 202-466 466-466z"/><path fill="none" stroke="rgb(52,101,164)" d="M9360 3643v0z"/><path fill="none" stroke="rgb(52,101,164)" d="M10294 4577v0z"/></g></g><g class="com.sun.star.drawing.CustomShape"><g id="id21"><path class="BoundingBox" stroke="none" fill="none" d="M3755 3361h937v937H3755z"/><path fill="rgb(204,7,0)" stroke="none" d="M4222 3362c264 0 467 202 467 466 0 264-203 467-467 467-264 0-466-203-466-467 0-264 202-466 466-466zm-466 0v0zm934 934v0z"/><path fill="none" stroke="rgb(52,101,164)" d="M4222 3362c264 0 467 202 467 466 0 264-203 467-467 467-264 0-466-203-466-467 0-264 202-466 466-466z"/><path fill="none" stroke="rgb(52,101,164)" d="M3756 3362v0z"/><path fill="none" stroke="rgb(52,101,164)" d="M4690 4296v0z"/></g></g><g class="com.sun.star.drawing.CustomShape"><g id="id22"><path class="BoundingBox" stroke="none" fill="none" d="M5748 2397h937v937H5748z"/><path fill="rgb(0,105,209)" stroke="none" d="M6215 2398c264 0 467 202 467 466 0 264-203 467-467 467-264 0-466-203-466-467 0-264 202-466 466-466zm-466 0v0zm934 934v0z"/><path fill="none" stroke="rgb(52,101,164)" d="M6215 2398c264 0 467 202 467 466 0 264-203 467-467 467-264 0-466-203-466-467 0-264 202-466 466-466z"/><path fill="none" stroke="rgb(52,101,164)" d="M5749 2398v0z"/><path fill="none" stroke="rgb(52,101,164)" d="M6683 3332v0z"/></g></g><g class="com.sun.star.drawing.CustomShape"><g id="id23"><path class="BoundingBox" stroke="none" fill="none" d="M7397 2303h937v937H7397z"/><path fill="rgb(255,186,42)" stroke="none" d="M7864 2304c264 0 467 202 467 466 0 264-203 467-467 467-264 0-466-203-466-467 0-264 202-466 466-466zm-466 0v0zm934 934v0z"/><path fill="none" stroke="rgb(52,101,164)" d="M7864 2304c264 0 467 202 467 466 0 264-203 467-467 467-264 0-466-203-466-467 0-264 202-466 466-466z"/><path fill="none" stroke="rgb(52,101,164)" d="M7398 2304v0z"/><path fill="none" stroke="rgb(52,101,164)" d="M8332 3238v0z"/></g></g></g></g></g></g></g></svg>