<svg version="1.2" width="139.7mm" height="139.7mm" viewBox="0 0 13970 13970" preserveAspectRatio="xMidYMid" fill-rule="evenodd" stroke-width="28.222" stroke-linejoin="round" xmlns="http://www.w3.org/2000/svg" xmlns:ooo="http://xml.openoffice.org/svg/export" xmlns:xlink="http://www.w3.org/1999/xlink" xmlns:presentation="http://sun.com/xmlns/staroffice/presentation" xmlns:smil="http://www.w3.org/2001/SMIL20/" xmlns:anim="urn:oasis:names:tc:opendocument:xmlns:animation:1.0"><defs class="ClipPathGroup"><clipPath id="presentation_clip_path" clipPathUnits="userSpaceOnUse"><path d="M0 0h13970v13970H0z"/></clipPath><clipPath id="presentation_clip_path_shrink" clipPathUnits="userSpaceOnUse"><path d="M13 13h13943v13943H13z"/></clipPath></defs><defs class="TextShapeIndex"></defs><defs class="EmbeddedBulletChars"><g id="bullet-char-template-57356" transform="scale(0.00048828125,-0.00048828125)"><path d="M580 1141l583-570L580 0-4 571l584 570z"/></g><g id="bullet-char-template-57354" transform="scale(0.00048828125,-0.00048828125)"><path d="M8 1128H1137V0H8V1128z"/></g><g id="bullet-char-template-10146" transform="scale(0.00048828125,-0.00048828125)"><path d="M174 0 602 739 174 1481 1456 739 174 0zM1358 739 309 1346 659 739h699z"/></g><g id="bullet-char-template-10132" transform="scale(0.00048828125,-0.00048828125)"><path d="M2015 739 1276 0H717l543 543H174V936H1260L717 1481h557l741-742z"/></g><g id="bullet-char-template-10007" transform="scale(0.00048828125,-0.00048828125)"><path d="M0-2C-7 14-16 27-25 37L356 567C262 823 215 952 215 954c0 25 13 38 40 38 9 0 21-2 34-5 21 4 42 12 65 25l27-13L492 748l280 301 64-25 24 25c21-10 41-24 62-43-36-69-87-143-152-222-1-1-60-68-176-2e2L774 223c0-27-21-55-63-84l16-20c-10-29-28-43-55-43-31 0-102 102-215 305L164-76c-22-34-53-51-92-51-42 0-63 17-64 51C1-67-2-52-2-32-2-23-1-13 0-2z"/></g><g id="bullet-char-template-10004" transform="scale(0.00048828125,-0.00048828125)"><path d="M285-33C182-33 111 30 74 156 52 228 41 333 41 471c0 78 14 145 41 201 34 71 87 106 158 106 53 0 88-31 106-94l23-176c8-64 28-97 59-98l735 706c11 11 33 17 66 17 42 0 63-15 63-46V965c0-36-10-64-30-84L442 47C390-6 338-33 285-33z"/></g><g id="bullet-char-template-9679" transform="scale(0.00048828125,-0.00048828125)"><path d="M813 0C632 0 489 54 383 161 276 268 223 411 223 592c0 181 53 324 160 431 106 107 249 161 430 161 179 0 323-54 432-161 108-107 162-251 162-431 0-180-54-324-162-431C1136 54 992 0 813 0z"/></g><g id="bullet-char-template-8226" transform="scale(0.00048828125,-0.00048828125)"><path d="M346 457c-73 0-137 26-191 78-54 51-81 114-81 188 0 73 27 136 81 188 54 52 118 78 191 78 73 0 134-26 185-79 51-51 77-114 77-187 0-75-25-137-76-188-50-52-112-78-186-78z"/></g><g id="bullet-char-template-8211" transform="scale(0.00048828125,-0.00048828125)"><path d="M-4 459H1135V606H-4V459z"/></g><g id="bullet-char-template-61548" transform="scale(0.00048828125,-0.00048828125)"><path d="M173 740c0 163 58 303 173 419 116 115 255 173 419 173 163 0 302-58 418-173 116-116 174-256 174-419 0-163-58-303-174-418-116-116-255-174-418-174-164 0-303 58-419 174C231 437 173 577 173 740z"/></g></defs><g id="id2" class="Master_Slide"></g><g class="SlideGroup"><g id="container-id1"><g id="id1" class="Slide" clip-path="url(#presentation_clip_path)"><g class="Page"><g class="Group"><g class="Graphic"><g id="id3"><path class="BoundingBox" stroke="none" fill="none" d="M1275 1745h11480v11088H1275z"/><defs><clipPath id="clip_path_1" clipPathUnits="userSpaceOnUse"><path d="M1275 1745H12754V12832H1275V1745z"/></clipPath></defs><g clip-path="url(#clip_path_1)"><path fill="rgb(254,247,170)" stroke="none" d="M11155 4606c265 458 192 864 39 1187-5-1-11-1-16-1-55 0-98 43-98 98 0 55 43 98 98 98 25 0 48-9 65-24 292 203 556 518 556 1045 0 529-267 844-560 1046-18-19-44-31-73-31-55 0-98 43-98 98 0 55 43 98 98 98 10 0 19-1 28-4 155 324 231 733-36 1194-267 462-660 6e2-1017 627-5-50-46-88-98-88-55 0-98 43-98 98 0 49 34 88 80 96-26 361-163 758-627 1026-461 266-869 191-1191 36 4-11 7-24 7-37 0-55-43-98-98-98-55 0-98 43-98 98 0 29 12 55 32 73-203 298-520 572-1055 572-529 0-845-266-1047-560 14-17 22-39 22-63 0-55-43-98-98-98-55 0-98 43-98 98 0 7 1 13 2 20-323 153-729 226-1187-39-461-266-599-657-628-1016 46-8 80-47 80-96 0-55-43-98-98-98-48 0-87 33-96 78-358-27-750-166-1017-627-269-464-191-874-35-1199 14 7 30 11 47 11 55 0 98-43 98-98 0-55-43-98-98-98-33 0-61 15-79 39-301-202-580-519-580-1060 0-531 268-847 563-1049 17 23 46 38 78 38 55 0 98-43 98-98 0-55-43-98-98-98-10 0-20 2-30 4-156-325-235-736 33-12e2 269-466 665-602 1026-628 5 50 46 87 97 87 55 0 98-43 98-98 0-52-38-93-89-98 27-360 164-754 627-1022 463-267 873-189 1197-33-3 8-4 17-4 27 0 55 43 98 98 98 55 0 98-43 98-98 0-29-13-55-33-73 203-295 519-563 1050-563 529 0 844 267 1048 561-18 18-29 42-29 69 0 55 43 98 98 98 55 0 98-43 98-98 0-8-1-15-3-22 323-155 731-230 1191 35 459 266 598 656 627 1014-43 11-73 49-73 95 0 55 43 98 98 98 47 0 85-31 95-74 357 28 747 167 1013 627v0z"/></g></g></g><g class="com.sun.star.drawing.CustomShape"><g id="id4"><path class="BoundingBox" stroke="none" fill="none" d="M6258 6261h1520v1524H6258z"/><path fill="rgb(255,255,255)" stroke="none" d="M7017 6262c430 0 758 329 758 760 0 431-328 760-758 760-430 0-758-329-758-760 0-431 328-760 758-760zm-758 0v0zM7776 7783v0z"/><path fill="none" stroke="rgb(52,101,164)" d="M7017 6262c430 0 758 329 758 760 0 431-328 760-758 760-430 0-758-329-758-760 0-431 328-760 758-760z"/><path fill="none" stroke="rgb(52,101,164)" d="M6259 6262v0z"/><path fill="none" stroke="rgb(52,101,164)" d="M7776 7783v0z"/></g></g><g class="Graphic"><g id="id5"><path class="BoundingBox" stroke="none" fill="none" d="M183 0h13641v13934H183z"/><defs><clipPath id="clip_path_2" clipPathUnits="userSpaceOnUse"><path d="M183 0H13823V13933H183V0z"/></clipPath></defs><g clip-path="url(#clip_path_2)"><path fill="rgb(250,237,111)" stroke="none" d="M6988 1024c-3385 0-5970 2587-5970 5972 0 3386 2585 5972 5970 5972 3385 0 5971-2586 5971-5972 0-3385-2586-5972-5971-5972v0zm3 518c574 0 1053 527 1107 1194 3-1 7-1 10-1 23 0 44 8 61 21 380-552 1058-770 1555-482 498 288 648 985 360 1590 24 10 42 28 52 52 605-288 1301-138 1590 359 286 495 72 1170-474 1551 15 17 23 39 23 63 0 4 0 9-1 13 662 58 1184 534 1184 1106 0 575-528 1053-1195 1107v7c0 23-7 43-20 59 555 380 774 1060 486 1559-290 501-994 650-1601 355-11 19-27 34-47 42 296 608 147 1313-354 1603-499 289-1181 68-1560-489-15 9-33 14-52 14-4 0-9 0-13-1-49 673-530 1208-1108 1208-573 0-1049-523-1106-1186-6 1-11 1-17 1-23 0-44-8-61-21-381 547-1056 762-1552 476-5e2-289-649-989-359-1594-21-10-37-27-47-49-605 292-1305 143-1595-357-291-503-66-1191 498-1568-8-14-12-31-12-48 0-4 0-8 1-11-680-43-1222-527-1222-1109 0-578 532-1057 1203-1107v-2c0-23 8-44 21-61-559-379-781-1062-492-1562 291-503 999-651 1607-352 8-19 23-34 41-43-297-609-149-1316 353-1606 5e2-289 1181-68 1561 488 16-12 37-20 60-20h8c52-669 530-1199 1107-1199v0z"/></g></g></g><g class="Group"><g class="Group"><g class="com.sun.star.drawing.CustomShape"><g id="id6"><path class="BoundingBox" stroke="none" fill="none" d="M11115 5895h1323v2227H11115z"/><path fill="rgb(248,213,49)" stroke="none" d="M11116 5896c330 199 660 523 660 1112 0 588-330 912-660 1112 725 0 1320-502 1320-1112 0-611-595-1112-1320-1112v0zm1320 0v0zM11116 8120v0z"/><path fill="none" stroke="rgb(52,101,164)" d="M11116 5896c330 199 660 523 660 1112 0 588-330 912-660 1112 725 0 1320-502 1320-1112 0-611-595-1112-1320-1112z"/><path fill="none" stroke="rgb(52,101,164)" d="M12436 5896v0z"/><path fill="none" stroke="rgb(52,101,164)" d="M11116 8120v0z"/></g></g><g class="com.sun.star.drawing.CustomShape"><g id="id7"><path class="BoundingBox" stroke="none" fill="none" d="M10013 3311h1828v2582H10013z"/><path fill="rgb(248,213,49)" stroke="none" d="M10014 3972c385 7 833 121 1127 629 294 508 170 952-16 1290 628-363 893-1093 588-1620-306-527-1071-661-1699-299v0zm1143-660v0zm-32 2579v0z"/><path fill="none" stroke="rgb(52,101,164)" d="M10014 3972c385 7 833 121 1127 629 294 508 170 952-16 1290 628-363 893-1093 588-1620-306-527-1071-661-1699-299z"/><path fill="none" stroke="rgb(52,101,164)" d="M11157 3312v0z"/><path fill="none" stroke="rgb(52,101,164)" d="M11125 5891v0z"/></g></g><g class="com.sun.star.drawing.CustomShape"><g id="id8"><path class="BoundingBox" stroke="none" fill="none" d="M8089 1717h2132v2260H8089z"/><path fill="rgb(248,213,49)" stroke="none" d="M8090 2862c338-187 783-311 1293-16 510 295 625 743 633 1129 363-628 226-1395-303-1701-529-305-1260-41-1623 588v0zm660-1144v0zm1266 2257v0z"/><path fill="none" stroke="rgb(52,101,164)" d="M8090 2862c338-187 783-311 1293-16 510 295 625 743 633 1129 363-628 226-1395-303-1701-529-305-1260-41-1623 588z"/><path fill="none" stroke="rgb(52,101,164)" d="M8750 1718v0z"/><path fill="none" stroke="rgb(52,101,164)" d="M10016 3975v0z"/></g></g><g class="com.sun.star.drawing.CustomShape"><g id="id9"><path class="BoundingBox" stroke="none" fill="none" d="M5855 1540h2227v1323H5855z"/><path fill="rgb(248,213,49)" stroke="none" d="M5856 2861c199-330 523-660 1112-660 588 0 912 330 1112 660 0-725-502-1320-1112-1320-611 0-1112 595-1112 1320v0zm0-1320v0zM8080 2861v0z"/><path fill="none" stroke="rgb(52,101,164)" d="M5856 2861c199-330 523-660 1112-660 588 0 912 330 1112 660 0-725-502-1320-1112-1320-611 0-1112 595-1112 1320z"/><path fill="none" stroke="rgb(52,101,164)" d="M5856 1541v0z"/><path fill="none" stroke="rgb(52,101,164)" d="M8080 2861v0z"/></g></g><g class="com.sun.star.drawing.CustomShape"><g id="id10"><path class="BoundingBox" stroke="none" fill="none" d="M1517 5893h1323v2227H1517z"/><path fill="rgb(248,213,49)" stroke="none" d="M2838 5894c-330 199-660 523-660 1112 0 588 330 912 660 1112-725 0-1320-502-1320-1112 0-611 595-1112 1320-1112v0zm-1320 0v0zM2838 8118v0z"/><path fill="none" stroke="rgb(52,101,164)" d="M2838 5894c-330 199-660 523-660 1112 0 588 330 912 660 1112-725 0-1320-502-1320-1112 0-611 595-1112 1320-1112z"/><path fill="none" stroke="rgb(52,101,164)" d="M1518 5894v0z"/><path fill="none" stroke="rgb(52,101,164)" d="M2838 8118v0z"/></g></g><g class="com.sun.star.drawing.CustomShape"><g id="id11"><path class="BoundingBox" stroke="none" fill="none" d="M2121 3309h1830v2589H2121z"/><path fill="rgb(248,213,49)" stroke="none" d="M3949 3970c-385 8-833 123-1128 633-294 509-171 954 15 1293-628-363-892-1095-587-1623 306-529 1073-665 17e2-303v0zM2806 3310v0zm30 2586v0z"/><path fill="none" stroke="rgb(52,101,164)" d="M3949 3970c-385 8-833 123-1128 633-294 509-171 954 15 1293-628-363-892-1095-587-1623 306-529 1073-665 17e2-303z"/><path fill="none" stroke="rgb(52,101,164)" d="M2806 3310v0z"/><path fill="none" stroke="rgb(52,101,164)" d="M2836 5896v0z"/></g></g><g class="com.sun.star.drawing.CustomShape"><g id="id12"><path class="BoundingBox" stroke="none" fill="none" d="M3746 1715h2131v2260H3746z"/><path fill="rgb(248,213,49)" stroke="none" d="M5875 2860c-338-187-783-311-1293-16-509 294-625 742-632 1129-363-629-226-1395 302-1701 529-305 1260-41 1623 588v0zM5215 1716v0zM3950 3973v0z"/><path fill="none" stroke="rgb(52,101,164)" d="M5875 2860c-338-187-783-311-1293-16-509 294-625 742-632 1129-363-629-226-1395 302-1701 529-305 1260-41 1623 588z"/><path fill="none" stroke="rgb(52,101,164)" d="M5215 1716v0z"/><path fill="none" stroke="rgb(52,101,164)" d="M3950 3973v0z"/></g></g><g class="com.sun.star.drawing.CustomShape"><g id="id13"><path class="BoundingBox" stroke="none" fill="none" d="M10023 8114h1830v2590H10023z"/><path fill="rgb(248,213,49)" stroke="none" d="M10024 10042c386-7 834-123 1128-633 295-510 171-956-15-1294 628 363 892 1095 587 1624-306 529-1072 666-17e2 303v0zm1144 660v0zm-31-2587v0z"/><path fill="none" stroke="rgb(52,101,164)" d="M10024 10042c386-7 834-123 1128-633 295-510 171-956-15-1294 628 363 892 1095 587 1624-306 529-1072 666-17e2 303z"/><path fill="none" stroke="rgb(52,101,164)" d="M11168 10702v0z"/><path fill="none" stroke="rgb(52,101,164)" d="M11137 8115v0z"/></g></g><g class="com.sun.star.drawing.CustomShape"><g id="id14"><path class="BoundingBox" stroke="none" fill="none" d="M81e2 10039h2132v2260H81e2z"/><path fill="rgb(248,213,49)" stroke="none" d="M8101 11153c338 187 783 311 1293 16 510-295 625-743 633-1129 363 628 226 1395-303 1701-529 305-1260 41-1623-588v0zm660 1144v0zm1266-2257v0z"/><path fill="none" stroke="rgb(52,101,164)" d="M8101 11153c338 187 783 311 1293 16 510-295 625-743 633-1129 363 628 226 1395-303 1701-529 305-1260 41-1623-588z"/><path fill="none" stroke="rgb(52,101,164)" d="M8761 12297v0z"/><path fill="none" stroke="rgb(52,101,164)" d="M10027 10040v0z"/></g></g><g class="com.sun.star.drawing.CustomShape"><g id="id15"><path class="BoundingBox" stroke="none" fill="none" d="M5858 11132h2227v1323H5858z"/><path fill="rgb(248,213,49)" stroke="none" d="M5859 11133c199 330 523 660 1112 660 588 0 912-330 1112-660 0 725-502 1320-1112 1320-611 0-1112-595-1112-1320v0zm0 1320v0zm2224-1320v0z"/><path fill="none" stroke="rgb(52,101,164)" d="M5859 11133c199 330 523 660 1112 660 588 0 912-330 1112-660 0 725-502 1320-1112 1320-611 0-1112-595-1112-1320z"/><path fill="none" stroke="rgb(52,101,164)" d="M5859 12453v0z"/><path fill="none" stroke="rgb(52,101,164)" d="M8083 11133v0z"/></g></g><g class="com.sun.star.drawing.CustomShape"><g id="id16"><path class="BoundingBox" stroke="none" fill="none" d="M2126 8106h1828v2582H2126z"/><path fill="rgb(248,213,49)" stroke="none" d="M3952 10026c-385-7-833-121-1127-629-294-508-170-952 16-1290-628 363-893 1093-588 1620 306 527 1071 661 1699 299v0zm-1143 660v0zm32-2579v0z"/><path fill="none" stroke="rgb(52,101,164)" d="M3952 10026c-385-7-833-121-1127-629-294-508-170-952 16-1290-628 363-893 1093-588 1620 306 527 1071 661 1699 299z"/><path fill="none" stroke="rgb(52,101,164)" d="M2809 10686v0z"/><path fill="none" stroke="rgb(52,101,164)" d="M2841 8107v0z"/></g></g><g class="com.sun.star.drawing.CustomShape"><g id="id17"><path class="BoundingBox" stroke="none" fill="none" d="M3748 10041h2132v2260H3748z"/><path fill="rgb(248,213,49)" stroke="none" d="M5878 11155c-338 187-783 311-1293 16-510-295-625-743-633-1129-363 628-226 1395 303 1701 529 305 1260 41 1623-588v0zm-660 1144v0zM3952 10042v0z"/><path fill="none" stroke="rgb(52,101,164)" d="M5878 11155c-338 187-783 311-1293 16-510-295-625-743-633-1129-363 628-226 1395 303 1701 529 305 1260 41 1623-588z"/><path fill="none" stroke="rgb(52,101,164)" d="M5218 12299v0z"/><path fill="none" stroke="rgb(52,101,164)" d="M3952 10042v0z"/></g></g></g><g class="Group"><g class="com.sun.star.drawing.CustomShape"><g id="id18"><path class="BoundingBox" stroke="none" fill="none" d="M3840 9960h2e2v2e2H3840z"/><path fill="rgb(248,213,49)" stroke="none" d="M3939 9961c55 0 98 43 98 98 0 55-43 98-98 98-55 0-98-43-98-98 0-55 43-98 98-98zm-98 0v0zm197 197v0z"/><path fill="none" stroke="rgb(52,101,164)" d="M3939 9961c55 0 98 43 98 98 0 55-43 98-98 98-55 0-98-43-98-98 0-55 43-98 98-98z"/><path fill="none" stroke="rgb(52,101,164)" d="M3841 9961v0z"/><path fill="none" stroke="rgb(52,101,164)" d="M4038 10158v0z"/></g></g><g class="com.sun.star.drawing.CustomShape"><g id="id19"><path class="BoundingBox" stroke="none" fill="none" d="M5769 11091h2e2v2e2H5769z"/><path fill="rgb(248,213,49)" stroke="none" d="M5868 11092c55 0 98 43 98 98 0 55-43 98-98 98-55 0-98-43-98-98 0-55 43-98 98-98zm-98 0v0zm197 197v0z"/><path fill="none" stroke="rgb(52,101,164)" d="M5868 11092c55 0 98 43 98 98 0 55-43 98-98 98-55 0-98-43-98-98 0-55 43-98 98-98z"/><path fill="none" stroke="rgb(52,101,164)" d="M5770 11092v0z"/><path fill="none" stroke="rgb(52,101,164)" d="M5967 11289v0z"/></g></g><g class="com.sun.star.drawing.CustomShape"><g id="id20"><path class="BoundingBox" stroke="none" fill="none" d="M8013 11069h2e2v2e2H8013z"/><path fill="rgb(248,213,49)" stroke="none" d="M8112 11070c55 0 98 43 98 98 0 55-43 98-98 98-55 0-98-43-98-98 0-55 43-98 98-98zm-98 0v0zm197 197v0z"/><path fill="none" stroke="rgb(52,101,164)" d="M8112 11070c55 0 98 43 98 98 0 55-43 98-98 98-55 0-98-43-98-98 0-55 43-98 98-98z"/><path fill="none" stroke="rgb(52,101,164)" d="M8014 11070v0z"/><path fill="none" stroke="rgb(52,101,164)" d="M8211 11267v0z"/></g></g><g class="com.sun.star.drawing.CustomShape"><g id="id21"><path class="BoundingBox" stroke="none" fill="none" d="M9941 9948h2e2v2e2H9941z"/><path fill="rgb(248,213,49)" stroke="none" d="M10040 9949c55 0 98 43 98 98 0 55-43 98-98 98-55 0-98-43-98-98 0-55 43-98 98-98zm-98 0v0zm197 197v0z"/><path fill="none" stroke="rgb(52,101,164)" d="M10040 9949c55 0 98 43 98 98 0 55-43 98-98 98-55 0-98-43-98-98 0-55 43-98 98-98z"/><path fill="none" stroke="rgb(52,101,164)" d="M9942 9949v0z"/><path fill="none" stroke="rgb(52,101,164)" d="M10139 10146v0z"/></g></g><g class="com.sun.star.drawing.CustomShape"><g id="id22"><path class="BoundingBox" stroke="none" fill="none" d="M11064 8023h2e2v2e2h-2e2z"/><path fill="rgb(248,213,49)" stroke="none" d="M11163 8024c55 0 98 43 98 98 0 55-43 98-98 98-55 0-98-43-98-98 0-55 43-98 98-98zm-98 0v0zm197 197v0z"/><path fill="none" stroke="rgb(52,101,164)" d="M11163 8024c55 0 98 43 98 98 0 55-43 98-98 98-55 0-98-43-98-98 0-55 43-98 98-98z"/><path fill="none" stroke="rgb(52,101,164)" d="M11065 8024v0z"/><path fill="none" stroke="rgb(52,101,164)" d="M11262 8221v0z"/></g></g><g class="Group"><g class="com.sun.star.drawing.CustomShape"><g id="id23"><path class="BoundingBox" stroke="none" fill="none" d="M2720 5798h2e2v2e2H2720z"/><path fill="rgb(248,213,49)" stroke="none" d="M2819 5799c55 0 98 43 98 98 0 55-43 98-98 98-55 0-98-43-98-98 0-55 43-98 98-98zm-98 0v0zm197 197v0z"/><path fill="none" stroke="rgb(52,101,164)" d="M2819 5799c55 0 98 43 98 98 0 55-43 98-98 98-55 0-98-43-98-98 0-55 43-98 98-98z"/><path fill="none" stroke="rgb(52,101,164)" d="M2721 5799v0z"/><path fill="none" stroke="rgb(52,101,164)" d="M2918 5996v0z"/></g></g><g class="com.sun.star.drawing.CustomShape"><g id="id24"><path class="BoundingBox" stroke="none" fill="none" d="M2738 8027h2e2v2e2H2738z"/><path fill="rgb(248,213,49)" stroke="none" d="M2837 8028c55 0 98 43 98 98 0 55-43 98-98 98-55 0-98-43-98-98 0-55 43-98 98-98zm-98 0v0zm197 197v0z"/><path fill="none" stroke="rgb(52,101,164)" d="M2837 8028c55 0 98 43 98 98 0 55-43 98-98 98-55 0-98-43-98-98 0-55 43-98 98-98z"/><path fill="none" stroke="rgb(52,101,164)" d="M2739 8028v0z"/><path fill="none" stroke="rgb(52,101,164)" d="M2936 8225v0z"/></g></g><g class="com.sun.star.drawing.CustomShape"><g id="id25"><path class="BoundingBox" stroke="none" fill="none" d="M3847 3865h2e2v2e2H3847z"/><path fill="rgb(248,213,49)" stroke="none" d="M3946 3866c55 0 98 43 98 98 0 55-43 98-98 98-55 0-98-43-98-98 0-55 43-98 98-98zm-98 0v0zm197 197v0z"/><path fill="none" stroke="rgb(52,101,164)" d="M3946 3866c55 0 98 43 98 98 0 55-43 98-98 98-55 0-98-43-98-98 0-55 43-98 98-98z"/><path fill="none" stroke="rgb(52,101,164)" d="M3848 3866v0z"/><path fill="none" stroke="rgb(52,101,164)" d="M4045 4063v0z"/></g></g><g class="com.sun.star.drawing.CustomShape"><g id="id26"><path class="BoundingBox" stroke="none" fill="none" d="M5774 2739h2e2v2e2H5774z"/><path fill="rgb(248,213,49)" stroke="none" d="M5873 2740c55 0 98 43 98 98 0 55-43 98-98 98-55 0-98-43-98-98 0-55 43-98 98-98zm-98 0v0zm197 197v0z"/><path fill="none" stroke="rgb(52,101,164)" d="M5873 2740c55 0 98 43 98 98 0 55-43 98-98 98-55 0-98-43-98-98 0-55 43-98 98-98z"/><path fill="none" stroke="rgb(52,101,164)" d="M5775 2740v0z"/><path fill="none" stroke="rgb(52,101,164)" d="M5972 2937v0z"/></g></g><g class="com.sun.star.drawing.CustomShape"><g id="id27"><path class="BoundingBox" stroke="none" fill="none" d="M8006 2733h2e2v2e2H8006z"/><path fill="rgb(248,213,49)" stroke="none" d="M8105 2734c55 0 98 43 98 98 0 55-43 98-98 98-55 0-98-43-98-98 0-55 43-98 98-98zm-98 0v0zm197 197v0z"/><path fill="none" stroke="rgb(52,101,164)" d="M8105 2734c55 0 98 43 98 98 0 55-43 98-98 98-55 0-98-43-98-98 0-55 43-98 98-98z"/><path fill="none" stroke="rgb(52,101,164)" d="M8007 2734v0z"/><path fill="none" stroke="rgb(52,101,164)" d="M8204 2931v0z"/></g></g><g class="com.sun.star.drawing.CustomShape"><g id="id28"><path class="BoundingBox" stroke="none" fill="none" d="M11076 5790h2e2v2e2h-2e2z"/><path fill="rgb(248,213,49)" stroke="none" d="M11175 5791c55 0 98 43 98 98 0 55-43 98-98 98-55 0-98-43-98-98 0-55 43-98 98-98zm-98 0v0zm197 197v0z"/><path fill="none" stroke="rgb(52,101,164)" d="M11175 5791c55 0 98 43 98 98 0 55-43 98-98 98-55 0-98-43-98-98 0-55 43-98 98-98z"/><path fill="none" stroke="rgb(52,101,164)" d="M11077 5791v0z"/><path fill="none" stroke="rgb(52,101,164)" d="M11274 5988v0z"/></g></g><g class="com.sun.star.drawing.CustomShape"><g id="id29"><path class="BoundingBox" stroke="none" fill="none" d="M9945 3855h2e2v2e2H9945z"/><path fill="rgb(248,213,49)" stroke="none" d="M10044 3856c55 0 98 43 98 98 0 55-43 98-98 98-55 0-98-43-98-98 0-55 43-98 98-98zm-98 0v0zm197 197v0z"/><path fill="none" stroke="rgb(52,101,164)" d="M10044 3856c55 0 98 43 98 98 0 55-43 98-98 98-55 0-98-43-98-98 0-55 43-98 98-98z"/><path fill="none" stroke="rgb(52,101,164)" d="M9946 3856v0z"/><path fill="none" stroke="rgb(52,101,164)" d="M10143 4053v0z"/></g></g></g></g></g></g></g></g></g></g></svg>