<svg xmlns="http://www.w3.org/2000/svg" xmlns:xlink="http://www.w3.org/1999/xlink" height="1100" width="1000">
  <circle cx="428" cy="365" r="4" fill="red"></circle>
  <text x="428" y="355" text-anchor="middle" font-size="14">1: base</text>
  <circle cx="512" cy="395" r="4" fill="red"></circle>
  <text x="512" y="385" text-anchor="middle" font-size="14">2: strong</text>
  <circle cx="604" cy="444" r="4" fill="red"></circle>
  <text x="604" y="434" text-anchor="middle" font-size="14">3: ladder</text>
  <circle cx="660" cy="453" r="4" fill="red"></circle>
  <text x="660" y="443" text-anchor="middle" font-size="14">4: darwin</text>
  <circle cx="792" cy="434" r="4" fill="red"></circle>
  <text x="792" y="424" text-anchor="middle" font-size="14">5: cork</text>
  <circle cx="174" cy="1013" r="4" fill="red"></circle>
  <text x="174" y="1003" text-anchor="middle" font-size="14">6: rye</text>
  <circle cx="306" cy="1005" r="4" fill="red"></circle>
  <text x="306" y="995" text-anchor="middle" font-size="14">7: section</text>
  <circle cx="684" cy="1067" r="4" fill="red"></circle>
  <text x="684" y="1057" text-anchor="middle" font-size="14">8: bisect</text>
  <circle cx="764" cy="1000" r="4" fill="red"></circle>
  <text x="764" y="990" text-anchor="middle" font-size="14">9: gold</text>
  <circle cx="908" cy="1016" r="4" fill="red"></circle>
  <text x="908" y="1006" text-anchor="middle" font-size="14">10: timer</text>
  <circle cx="820" cy="1020" r="4"></circle>
  <text x="820" y="1010" text-anchor="middle" font-size="14">11: rings</text>
  <circle cx="158" cy="440" r="4"></circle>
  <text x="158" y="430" text-anchor="middle" font-size="14">12: thunderbird</text>
  <circle cx="224" cy="873" r="4"></circle>
  <text x="224" y="863" text-anchor="middle" font-size="14">13: kudos</text>
  <circle cx="322" cy="651" r="4"></circle>
  <text x="322" y="641" text-anchor="middle" font-size="14">14: teff</text>
  <circle cx="318" cy="566" r="4"></circle>
  <text x="318" y="556" text-anchor="middle" font-size="14">15: barrel</text>
  <circle cx="956" cy="148" r="4"></circle>
  <text x="956" y="138" text-anchor="middle" font-size="14">16: overcast</text>
  <circle cx="752" cy="398" r="4"></circle>
  <text x="752" y="388" text-anchor="middle" font-size="14">17: diana</text>
  <circle cx="806" cy="960" r="4"></circle>
  <text x="806" y="950" text-anchor="middle" font-size="14">18: boston</text>
  <circle cx="236" cy="618" r="4"></circle>
  <text x="230" y="608" text-anchor="middle" font-size="14">19: soft </text>
  <circle cx="666" cy="840" r="4"></circle>
  <text x="666" y="830" text-anchor="middle" font-size="14">20: hospital</text>
  <circle cx="642" cy="747" r="4"></circle>
  <text x="642" y="737" text-anchor="middle" font-size="14">21: nib</text>
  <circle cx="376" cy="806" r="4"></circle>
  <text x="376" y="796" text-anchor="middle" font-size="14">22: cup</text>
  <circle cx="886" cy="581" r="4"></circle>
  <text x="886" y="571" text-anchor="middle" font-size="14">23: home</text>
  <circle cx="180" cy="203" r="4"></circle>
  <text x="180" y="193" text-anchor="middle" font-size="14">24: zigzag</text>
  <circle cx="178" cy="381" r="4"></circle>
  <text x="178" y="371" text-anchor="middle" font-size="14">25: infinity</text>
  <circle cx="394" cy="113" r="4"></circle>
  <text x="394" y="103" text-anchor="middle" font-size="14">26: paint</text>
  <circle cx="912" cy="840" r="4"></circle>
  <text x="912" y="830" text-anchor="middle" font-size="14">27: perfect</text>
  <circle cx="580" cy="1060" r="4"></circle>
  <text x="580" y="1050" text-anchor="middle" font-size="14">28: husk</text>
  <circle cx="132" cy="879" r="4"></circle>
  <text x="132" y="869" text-anchor="middle" font-size="14">29: souls</text>
  <circle cx="702" cy="502" r="4"></circle>
  <text x="702" y="492" text-anchor="middle" font-size="14">30: maize</text>
  <circle cx="110" cy="211" r="4"></circle>
  <text x="110" y="201" text-anchor="middle" font-size="14">31: converter</text>
  <circle cx="496" cy="1000" r="4"></circle>
  <text x="496" y="990" text-anchor="middle" font-size="14">32: sage</text>
  <circle cx="652" cy="1080" r="4"></circle>
  <text x="652" y="1070" text-anchor="middle" font-size="14">33: drum</text>
  <circle cx="262" cy="139" r="4"></circle>
  <text x="262" y="129" text-anchor="middle" font-size="14">34: add</text>
  <circle cx="644" cy="545" r="4"></circle>
  <text x="644" y="535" text-anchor="middle" font-size="14">35: rolls</text>
  <circle cx="838" cy="366" r="4"></circle>
  <text x="838" y="356" text-anchor="middle" font-size="14">36: chain</text>
  <circle cx="532" cy="648" r="4"></circle>
  <text x="532" y="638" text-anchor="middle" font-size="14">37: limerick</text>
  <circle cx="446" cy="397" r="4"></circle>
  <text x="446" y="387" text-anchor="middle" font-size="14">38: tent</text>
  <circle cx="408" cy="554" r="4"></circle>
  <text x="408" y="544" text-anchor="middle" font-size="14">39: feed</text>
  <circle cx="588" cy="690" r="4"></circle>
  <text x="588" y="680" text-anchor="middle" font-size="14">40: swords</text>
  <circle cx="540" cy="367" r="4"></circle>
  <text x="540" y="357" text-anchor="middle" font-size="14">41: foot</text>
  <circle cx="522" cy="958" r="4"></circle>
  <text x="522" y="948" text-anchor="middle" font-size="14">42: happily</text>
  <circle cx="580" cy="234" r="4"></circle>
  <text x="580" y="224" text-anchor="middle" font-size="14">43: cap</text>
  <circle cx="372" cy="536" r="4"></circle>
  <text x="372" y="526" text-anchor="middle" font-size="14">44: cell</text>
  <circle cx="230" cy="828" r="4"></circle>
  <text x="230" y="818" text-anchor="middle" font-size="14">45: inch</text>
  <circle cx="430" cy="616" r="4"></circle>
  <text x="430" y="606" text-anchor="middle" font-size="14">46: branch</text>
  <circle cx="624" cy="131" r="4"></circle>
  <text x="624" y="121" text-anchor="middle" font-size="14">47: man</text>
  <circle cx="840" cy="140" r="4"></circle>
  <text x="840" y="130" text-anchor="middle" font-size="14">48: clone</text>
  <circle cx="282" cy="892" r="4"></circle>
  <text x="282" y="882" text-anchor="middle" font-size="14">49: spelt</text>
  <circle cx="762" cy="931" r="4"></circle>
  <text x="762" y="921" text-anchor="middle" font-size="14">50: barley</text>
  <circle cx="504" cy="880" r="4"></circle>
  <text x="504" y="870" text-anchor="middle" font-size="14">51: paddle</text>
  <circle cx="260" cy="511" r="4"></circle>
  <text x="260" y="501" text-anchor="middle" font-size="14">52: stage</text>
  <circle cx="666" cy="113" r="4"></circle>
  <text x="666" y="103" text-anchor="middle" font-size="14">53: calvin</text>
  <circle cx="236" cy="178" r="4"></circle>
  <text x="236" y="168" text-anchor="middle" font-size="14">54: bells</text>
  <circle cx="638" cy="222" r="4"></circle>
  <text x="638" y="212" text-anchor="middle" font-size="14">55: oats</text>
  <circle cx="270" cy="727" r="4"></circle>
  <text x="270" y="717" text-anchor="middle" font-size="14">56: history</text>
  <circle cx="730" cy="840" r="4"></circle>
  <text x="730" y="830" text-anchor="middle" font-size="14">57: ovens</text>
  <circle cx="284" cy="615" r="4"></circle>
  <text x="284" y="605" text-anchor="middle" font-size="14">58: merge</text>
  <circle cx="736" cy="110" r="4"></circle>
  <text x="736" y="100" text-anchor="middle" font-size="14">59: golf</text>
  <circle cx="554" cy="931" r="4"></circle>
  <text x="554" y="921" text-anchor="middle" font-size="14">60: running</text>
  <circle cx="96" cy="464" r="4"></circle>
  <text x="96" y="454" text-anchor="middle" font-size="14">61: noodle</text>
  <circle cx="58" cy="964" r="4"></circle>
  <text x="58" y="954" text-anchor="middle" font-size="14">62: coins</text>
  <circle cx="566" cy="563" r="4"></circle>
  <text x="566" y="553" text-anchor="middle" font-size="14">63: dodge</text>
  <circle cx="358" cy="695" r="4"></circle>
  <text x="358" y="685" text-anchor="middle" font-size="14">64: tooth</text>
  <circle cx="830" cy="658" r="4"></circle>
  <text x="830" y="648" text-anchor="middle" font-size="14">65: yolk</text>
  <circle cx="654" cy="255" r="4"></circle>
  <text x="654" y="245" text-anchor="middle" font-size="14">66: angel</text>
  <circle cx="258" cy="1021" r="4"></circle>
  <text x="258" y="1011" text-anchor="middle" font-size="14">67: plant</text>
</svg>
